<?xml version="1.0" encoding="utf-8"?>
<!-- Generator: Adobe Illustrator 28.2.0, SVG Export Plug-In . SVG Version: 6.00 Build 0)  -->
<svg version="1.1" id="Layer_1" xmlns="http://www.w3.org/2000/svg" xmlns:xlink="http://www.w3.org/1999/xlink" x="0px" y="0px"
	 viewBox="0 0 96 21" style="enable-background:new 0 0 96 21;" xml:space="preserve">
<style type="text/css">
	.st0{fill:#FEF5E4;}
</style>
<g>
	<path class="st0" d="M4.2,4.7h3.1l2.3,9.4H8.1l2.1-9.4h3.1l2.1,9.4H14l2.3-9.4h2.5l-2.8,10.6H13l-2.1-9.2H12l-2.1,9.2H7L4.2,4.7z"
		/>
	<path class="st0" d="M19.2,15c-0.6-0.3-1.1-0.8-1.4-1.3c-0.3-0.6-0.5-1.3-0.5-2.1c0-0.8,0.2-1.5,0.5-2.1c0.3-0.6,0.8-1,1.4-1.3
		s1.3-0.5,2-0.5c0.7,0,1.3,0.1,1.9,0.4s1,0.7,1.3,1.2c0.3,0.5,0.5,1.2,0.5,2c0,0.2,0,0.4,0,0.7h-5.1v-1.2h2.6l-0.2,0.6
		c0-0.1,0-0.2,0-0.3c0-0.5-0.1-0.9-0.2-1.3c-0.1-0.3-0.4-0.5-0.6-0.5c-0.2,0-0.4,0.1-0.6,0.3c-0.2,0.2-0.3,0.4-0.3,0.8
		c-0.1,0.3-0.1,0.8-0.1,1.3c0,0.5,0,0.9,0.1,1.3s0.2,0.6,0.3,0.8c0.2,0.2,0.4,0.3,0.6,0.3c0.3,0,0.5-0.1,0.6-0.3
		c0.2-0.2,0.3-0.5,0.4-0.8l2.3,0.4c-0.2,0.7-0.6,1.2-1.2,1.7s-1.3,0.6-2.2,0.6C20.5,15.5,19.8,15.3,19.2,15z"/>
	<path class="st0" d="M25.8,15c-0.6-0.3-1-0.8-1.2-1.4l2.1-0.4c0.1,0.3,0.3,0.5,0.5,0.7s0.5,0.2,0.9,0.2c0.3,0,0.6,0,0.7-0.1
		c0.2-0.1,0.2-0.2,0.2-0.4c0-0.2-0.1-0.3-0.3-0.4c-0.2-0.1-0.6-0.2-1.1-0.3c-1.1-0.2-1.8-0.5-2.3-0.9c-0.5-0.4-0.7-1-0.7-1.7
		c0-0.5,0.1-1,0.4-1.4c0.3-0.4,0.7-0.7,1.2-0.9c0.5-0.2,1.1-0.3,1.7-0.3c0.8,0,1.5,0.2,2.1,0.5c0.6,0.3,1,0.7,1.2,1.3l-2.1,0.4
		c-0.1-0.3-0.3-0.4-0.4-0.6c-0.2-0.1-0.4-0.2-0.7-0.2c-0.3,0-0.5,0-0.6,0.1c-0.1,0.1-0.2,0.2-0.2,0.4s0.1,0.3,0.3,0.4
		s0.5,0.2,1.1,0.3c1.1,0.2,1.8,0.5,2.3,0.9c0.5,0.4,0.7,0.9,0.7,1.7c0,0.8-0.3,1.4-1,1.9c-0.6,0.5-1.5,0.7-2.5,0.7
		C27.2,15.5,26.4,15.3,25.8,15z"/>
	<path class="st0" d="M31.5,4.7h2.9v10.6h-2.9V4.7z"/>
	<path class="st0" d="M36.2,15c-0.6-0.3-1.1-0.8-1.4-1.3c-0.3-0.6-0.5-1.3-0.5-2.1c0-0.8,0.2-1.5,0.5-2.1c0.3-0.6,0.8-1,1.4-1.3
		s1.3-0.5,2-0.5c0.7,0,1.3,0.1,1.9,0.4s1,0.7,1.3,1.2c0.3,0.5,0.5,1.2,0.5,2c0,0.2,0,0.4,0,0.7h-5.1v-1.2h2.6l-0.2,0.6
		c0-0.1,0-0.2,0-0.3c0-0.5-0.1-0.9-0.2-1.3c-0.1-0.3-0.4-0.5-0.6-0.5c-0.2,0-0.4,0.1-0.6,0.3c-0.2,0.2-0.3,0.4-0.3,0.8
		c-0.1,0.3-0.1,0.8-0.1,1.3c0,0.5,0,0.9,0.1,1.3s0.2,0.6,0.3,0.8c0.2,0.2,0.4,0.3,0.6,0.3c0.3,0,0.5-0.1,0.6-0.3
		c0.2-0.2,0.3-0.5,0.4-0.8l2.3,0.4c-0.2,0.7-0.6,1.2-1.2,1.7s-1.3,0.6-2.2,0.6C37.5,15.5,36.8,15.3,36.2,15z"/>
	<path class="st0" d="M42.2,18.1v-2c0.2,0.1,0.5,0.1,0.8,0.1c0.3,0,0.5,0,0.7-0.1c0.2-0.1,0.3-0.2,0.4-0.5l0.1-0.3l0,0.7l-3.1-8.2
		h3.1l1.9,6H45l1.6-6H49l-2.5,7.7c-0.3,1-0.7,1.7-1.2,2.1c-0.5,0.4-1.1,0.6-1.9,0.6C43,18.2,42.6,18.2,42.2,18.1z"/>
	<path class="st0" d="M50.4,4.7h4.1l2.2,8.6h-1.1l2.2-8.6H62v10.6h-3V5.7h0.7l-2.6,9.6h-2.3l-2.7-9.7h0.7v9.7h-2.5V4.7z"/>
	<path class="st0" d="M64,15c-0.6-0.3-1.1-0.7-1.4-1.3c-0.3-0.6-0.5-1.3-0.5-2.1c0-0.8,0.2-1.5,0.5-2.1c0.3-0.6,0.8-1,1.4-1.3
		s1.3-0.5,2.1-0.5c0.8,0,1.5,0.2,2.1,0.5s1.1,0.7,1.4,1.3c0.3,0.6,0.5,1.3,0.5,2.1c0,0.8-0.2,1.5-0.5,2.1c-0.3,0.6-0.8,1-1.4,1.3
		c-0.6,0.3-1.3,0.5-2.1,0.5C65.3,15.5,64.6,15.3,64,15z M66.9,13.3c0.1-0.4,0.2-0.9,0.2-1.7s-0.1-1.3-0.2-1.7
		c-0.1-0.4-0.4-0.6-0.8-0.6c-0.4,0-0.6,0.2-0.8,0.6c-0.1,0.4-0.2,0.9-0.2,1.7s0.1,1.3,0.2,1.7c0.1,0.4,0.4,0.6,0.8,0.6
		C66.5,13.8,66.7,13.6,66.9,13.3z"/>
	<path class="st0" d="M70,7.9h2.9v1.5h-0.1c0.2-0.5,0.5-0.9,0.9-1.2c0.4-0.3,0.8-0.4,1.2-0.4c0.1,0,0.2,0,0.3,0V10
		C75,10,74.8,10,74.5,10c-0.3,0-0.6,0.1-0.9,0.2c-0.3,0.1-0.5,0.4-0.6,0.6v4.5H70V7.9z"/>
	<path class="st0" d="M75.2,14.8c-0.4-0.4-0.6-0.9-0.6-1.5c0-0.8,0.3-1.4,0.8-1.8s1.3-0.7,2.3-0.8c0.3,0,0.7-0.1,1.2-0.1v-0.5
		c0-0.3-0.1-0.5-0.2-0.6c-0.1-0.1-0.3-0.2-0.5-0.2c-0.2,0-0.4,0.1-0.5,0.2s-0.3,0.4-0.3,0.6L75,9.9c0.2-0.7,0.6-1.2,1.2-1.6
		c0.6-0.4,1.4-0.6,2.3-0.6c1,0,1.8,0.2,2.4,0.7c0.6,0.4,0.9,1.1,0.9,2v3c0,0.5,0.1,1.2,0.2,1.9h-2.8C79.1,14.9,79,14.4,79,14h0.1
		c-0.2,0.4-0.6,0.8-0.9,1c-0.4,0.3-0.8,0.4-1.4,0.4C76.1,15.4,75.6,15.2,75.2,14.8z M78.5,13.6c0.2-0.1,0.3-0.2,0.4-0.4v-1.2
		c-0.2,0-0.3,0-0.5,0.1c-0.3,0.1-0.6,0.2-0.8,0.3c-0.2,0.2-0.3,0.4-0.3,0.6c0,0.2,0.1,0.4,0.2,0.5c0.1,0.1,0.3,0.2,0.5,0.2
		C78.2,13.8,78.4,13.7,78.5,13.6z"/>
	<path class="st0" d="M81.9,4.9h3v2.2h-3V4.9z M81.9,7.9h2.9v7.4h-2.9V7.9z"/>
	<path class="st0" d="M86,15c-0.6-0.3-1-0.8-1.2-1.4l2.1-0.4c0.1,0.3,0.3,0.5,0.5,0.7c0.2,0.1,0.5,0.2,0.9,0.2c0.3,0,0.6,0,0.7-0.1
		c0.2-0.1,0.2-0.2,0.2-0.4c0-0.2-0.1-0.3-0.3-0.4s-0.6-0.2-1.1-0.3c-1.1-0.2-1.8-0.5-2.3-0.9c-0.5-0.4-0.7-1-0.7-1.7
		c0-0.5,0.1-1,0.4-1.4C85.6,8.6,86,8.3,86.5,8c0.5-0.2,1.1-0.3,1.7-0.3c0.8,0,1.5,0.2,2.1,0.5s1,0.7,1.2,1.3l-2.1,0.4
		c-0.1-0.3-0.3-0.4-0.4-0.6c-0.2-0.1-0.4-0.2-0.7-0.2c-0.3,0-0.5,0-0.6,0.1c-0.1,0.1-0.2,0.2-0.2,0.4s0.1,0.3,0.3,0.4
		c0.2,0.1,0.5,0.2,1.1,0.3c1.1,0.2,1.8,0.5,2.3,0.9c0.5,0.4,0.7,0.9,0.7,1.7c0,0.8-0.3,1.4-1,1.9c-0.6,0.5-1.5,0.7-2.5,0.7
		C87.4,15.5,86.6,15.3,86,15z"/>
</g>
</svg>
