<svg xmlns="http://www.w3.org/2000/svg" version="1.1" xmlns:xlink="http://www.w3.org/1999/xlink" xmlns:svgjs="http://svgjs.dev/svgjs" viewBox="0 0 800 800" opacity="1"><defs><linearGradient x1="50%" y1="0%" x2="50%" y2="100%" id="ssscribble-grad"><stop stop-color="#F48C06" stop-opacity="1" offset="0%"></stop><stop stop-color="#ffffff" stop-opacity="1" offset="100%"></stop></linearGradient></defs><g fill="none" stroke-width="1.5" stroke="url(#ssscribble-grad)" stroke-linecap="round"><path d="M1078.39 569.92C1079.19 601.81 1002.96 641.07 879.98 685.06 748.42 726.89 647.11 769.02 599.04 805.71 611.21 833.27 669.8 847.02 750.18 840.98 837.51 820.07 902.35 777.82 933.37 718.19 932.66 659.65 898 604.84 840.62 570.21 765.48 573.24 685.17 617.23 608.99 702.76 531.4 815.67 464.17 935.77 409.1 1033.61 355.15 1083.87 312.04 1070.4 280.15 992.66 248.25 876.39 229.09 755.26 222.88 662.58 217.8 619.87 227.01 631.99 249.33 687.51 270.24 773.82 298.02 861.31 324 929.09 332.23 971.04 321.1 974.25 280.01 943.09 207.18 884.12 104.54 806.86 -16 723.54 -129.59 634.91 -216.78 553.21 -252.33 482.55 -227.64 415.83 -144.48 360.2 -25.23 314.31 85.43 270.43 155.2 232.9 154.4 201 77.58 169.11 -41.82 144.36 -159.99 128.09 -244.5 113.83 -264.22 111.44 -218.22 122.89 -121.04 138.27 1.3 167.45 119.34 206.93 215.73 241.09 274.57 272.56 296.34 289.72 283.87 279.09 251.26 238.06 212.87 162.9 167.55 61.91 133.26 -54.17 114.39 -163.86 100.65 -242.76 102.35 -273.04 116.78 -242.63 133.76 -162.26 159.11 -47.6 191 68.66 222.9 146.4 259.82 166.33 302.99 128.38 348.71 42.85 405.02 -59.09 474.03 -148.62 548.17 -210.77 634.99 -226.16 729.47 -195.98 817.01 -128.14 895.42 -35.51 949.7 64.82 969.74 166.26 948.72 254.3 885.54 324.36 800.72 379.56 706.97 418.33 633.17 446.05 610.53 464.62 648.39 480.51 745.19 498.83 875.66 515 1001.54 538.02 1078.38 569.91Q1078.39 569.92 1078.39 569.92" opacity="0.18"></path><path d="M1039.89 626.57C1043.73 655.81 981.37 684.76 874.84 711.48 752.45 736.06 645.42 754.41 576.07 762.65 554.71 764.16 578.28 751.14 632.2 722 707.3 687.03 779.04 640.46 833.37 589.28 870.38 550.02 879.18 524.46 863.63 524.2 829.5 557.76 781.23 624.65 727.39 720.12 666.93 828.75 609.4 933.91 559.45 1012.55 508.67 1047.36 467.69 1027.56 438.45 954.16 409.21 848.25 393.11 735.73 388.75 643.13 383.56 588.61 387.9 579.46 397.7 610.61 400.87 675.48 401 752.57 390.07 824.19 360.55 884.94 309.78 918.58 234.45 923.46 141.81 904.11 35.4 862.05 -70.13 806.1 -154.49 738.55 -204.28 668.74 -204.36 602.95 -156.43 535.86 -66.05 476.86 45.05 427.69 140.3 379.07 196.73 339.76 192.89 310.52 124.86 281.28 18.7 263.5 -91.97 256.98 -182.25 251.01 -223.29 256.82 -208.65 273.24 -145.05 288.37 -47.01 310.03 62.89 332.52 170.29 343.42 256.77 343.51 315.56 324.54 346.55 281.36 352.94 213.05 343.99 121.87 320.24 19.8 295.45 -83.49 276.83 -169.8 256.51 -222.38 247.67 -229.89 251.71 -186.67 256.47 -105.36 273.4 1.23 302.64 107.14 331.88 180.56 372.03 206.3 422.41 182.78 473.51 115.43 535.53 26.91 606.52 -60.28 675.81 -134.33 748.74 -175.01 817.56 -178.13 871.57 -147.43 907.15 -87.21 914.48 -9.64 894.01 79.84 842.19 168.39 765.23 248.42 685.77 322.62 613.95 383.79 571.77 432.95 578.56 475.38 636.24 510.22 737.81 540.78 859.77 569.2 971.86 597.33 1039.89 626.57Q1039.89 626.57 1039.89 626.57" opacity="0.85"></path><path d="M1001.21 586.86C1007.82 613.44 958.57 633.21 868.96 645.45 759.2 656.38 653.12 657.54 570.45 647.72 522.04 635.15 511.75 611.19 533.23 577.7 582.16 546.33 641.45 512.67 698.21 484.06 752.18 472.27 788.9 478.4 806.47 508.96 811.08 565.45 799.1 645.6 775.7 742.01 744.7 840.38 709.25 928.03 674.13 987.82 637.18 1008.86 604.29 984.15 577.71 915.52 551.13 819.92 532.13 716.75 518.95 626.6 503.94 564.11 491.04 537.34 475.99 545.49 453.32 586.17 421.54 645.22 375.96 709.2 317.42 774.41 242.55 824.79 153.74 855.24 62.14 869.3 -28.65 862.19 -105.25 838.5 -154.41 802.17 -167.96 757.15 -139.03 709.4 -75.84 657.16 15.1 607.72 114.6 564.48 193.96 520.56 237.82 484.49 231.21 457.91 171.36 431.33 78.29 415.5 -22.86 409.29 -141.97 402.94 -117.73 411.99 4.72 407.99 104.79 390.71 199.77 359.67 279.74 310.78 343.44 245.5 386.2 163.61 411.45 70.73 421.33 -20.92 422.29 -103.81 420.85 -163.99 413.67 -191.62 411.06 -179.99 416.61 -127.77 421.27 -47.88 436.22 49.89 462.8 145.49 489.38 214.14 526.33 244.24 571.78 233.47 616.36 183.94 667.32 111.43 720.57 32.54 768.07 -44.39 810.88 -100.71 841.96 -129.53 857.68 -132.41 853.08 -107.03 824.21 -60.41 779.08 3.03 715.61 74.84 643.22 147.18 582.05 221.63 538.66 289.37 527.74 348.01 559.02 403.88 630.1 451.07 731.49 490.27 842.9 528.16 941.36 560.28 1001.21 586.86Q1001.21 586.86 1001.21 586.86" opacity="0.34"></path><path d="M962.74 467.89C971.2 491.81 933.59 506.06 860.48 511 765.78 515.68 666.66 510.84 579.22 497.42 494.01 475.47 498.52 424.85 556.89 419.66 606.02 435.94 649.38 469.47 682.06 522.48 709.88 592 724.18 675.45 726.18 764.88 722.96 848.54 710.89 917.41 692.85 959.47 673.13 968.65 650.58 940.49 626.66 877.04 602.74 791.68 578.58 698.47 553.19 612.92 526.11 546.25 494.67 506.19 456.44 494.41 412.98 511.02 359.29 547.84 294.6 595.73 225.05 652.78 147.35 705.47 66.87 747.57 -5.95 782.22 -68.1 801.09 -109.59 805.09 -124.45 799.37 -108.07 782.39 -59.31 758.12 10.58 728.77 96.09 696.92 181.56 665.9 245.44 633.65 278.2 604.73 269.74 580.81 217.97 556.88 137.94 539.1 47.85 526.24 -39.96 512.13 -104.72 500.47 -136.94 488.37 -136.29 471.18 -101.65 448.78 -41.72 417.63 36.69 376.77 122.02 323.56 204.42 257.57 282.53 184.11 347.94 103.06 399.44 21.1 440.31 -51.69 469.87 -109.97 491.83 -144.12 507.6 -149.88 521.32 -123.44 536.41 -66.01 549.94 10.28 567.95 98.65 591.87 184.01 615.79 247.47 644.49 280.5 676.08 280.56 706.1 247.74 735.89 192.48 761.58 126.36 781.08 54.45 790.91 -7.53 786.9 -52.15 772.27 -80.26 741.2 -85.42 694.45 -70.35 643.4 -38.92 586.43 5.64 532.92 57.14 497.9 115.49 484.71 173.66 501.59 227.68 551.35 282.55 629.72 330.91 726.78 371.34 826.1 411.51 910.97 443.97 962.74 467.89Q962.74 467.89 962.74 467.89" opacity="0.72"></path><path d="M924.39 320.14C933.99 341.4 906.55 354.33 849.09 359.8 770.79 365.78 683.24 365.45 598.67 360.75 524.28 358.93 468.18 356.09 432.88 355.63 418.69 363.05 422.45 378.07 438.56 404.09 467 442.38 498.26 494.08 527.02 558.54 557.74 630.68 580.82 708.48 594.6 784.82 608.22 876.12 589.92 911.61 561.58 838.66 540.32 763.44 512.95 680.65 479.6 601.6 445.41 534.39 403.85 485.7 354.83 458.34 304.19 453.55 246.1 467.52 182.6 494.81 121.07 534.83 59.29 577.72 2.99 617.8 -40.99 657.87 -69.96 688.88 -77.9 709.3 -64.75 724.75 -27.72 729.78 31.07 725.96 100.06 718.43 175.51 704.86 245.61 687.34 294.86 668.7 317.99 648.23 308.39 626.97 264.44 605.7 197.17 584.66 119.28 563.2 38.41 540.61 -29.05 515.5 -74.57 486.18 -97.27 453.15 -92.21 413.11 -63.18 364.89 -14.45 311.7 47.84 250.16 115.92 182.22 188.56 114.27 257.48 46.17 318.96 -15.98 376.46 -65.41 424.84 -98.45 464.63 -109.24 500.43 -97.47 530.28 -60.88 555.88 -1.88 580.19 68.96 602.65 147.44 623.91 222.66 654.7 297.77 698.94 286.89 704.4 217.22 701.47 156.47 688.11 97.74 663.37 47.74 634.67 5.42 596.27 -21.06 551.5 -31.48 511.29 -29.63 474.2 -14.13 447.61 11.22 440.72 44.45 454.72 82.3 493.01 120.98 554.12 162.52 633.69 201.53 722.77 235.65 808.86 270.28 880.44 298.88 924.39 320.14Q924.39 320.14 924.39 320.14" opacity="0.73"></path><path d="M885.88 206.16C896.26 224.76 877.82 239.19 834.97 250.2 773.57 261.99 700.78 271.9 625.27 281.65 551.87 294.49 487.8 310.05 436.8 330.52 399.38 357.11 376.53 391.44 366.01 434.62 367.32 484.67 375.79 543.07 387.4 607.68 404.44 673.26 419.72 738.54 430.5 797.94 445.24 862.18 438.55 867.42 414.89 800.13 396.28 734.93 370.05 662.9 337.14 591.91 304.26 527.48 264.94 474.88 220.69 437.12 177.67 415.57 131.75 409.3 86.04 415.64 45.75 434.61 10.57 460.12 -15.12 487.92 -28.98 520.24 -28.18 549.41 -10.14 572.93 21.48 595.84 68.87 611.3 128.63 618.99 190.5 625.1 252.7 624.15 306.92 616.73 342.59 608.69 357.26 595.25 346.88 576.64 310.11 558.04 254.9 535.14 189.73 508.1 118.72 480.44 54.11 447.53 2.78 409.18 -34.88 369.25 -52.41 323.15 -50.47 271.57 -32.02 219.37 1.46 163.49 45.02 106.79 97.23 54.6 152.5 7.03 206.65 -31.3 262.21 -57.01 313.13 -67.42 357.76 -59.51 401.36 -35.39 438.61 6.61 469.32 63.86 499.46 127.67 524 195.93 542.6 261.13 567.11 330.3 580.64 346.6 567.59 301.29 555.2 255.53 534.92 206.93 508.03 160.73 482.56 115.48 454 79.15 426.16 53.49 401.27 30.88 431 44.9 499.4 71.84 564.37 94.33 639.57 118.27 717.75 141.56 790.1 165.64 849.09 187.54 885.87 206.15Q885.88 206.16 885.88 206.16" opacity="0.08"></path><path d="M847.39 174.53C848.19 206.42 771.22 241.13 653.74 283.5 525.39 334.23 419.84 405.36 351.41 498.87 315.52 600.66 304.07 710.29 298.5 801.11 302.19 850 292.58 839.4 260.69 761.66 228.8 645.39 177.64 523.67 118.67 429.94 68.97 376.96 30.64 365.56 24.73 380.19 51.36 418.35 123.07 453.35 228.04 470.59 322.14 488.62 386.19 483.15 385.39 451.26 308.57 419.36 195.61 364.07 91.99 290.77 13.66 218.25 -8.78 133.47 16.55 53.51 75.68 -2.91 152.37 -25.35 223.86 4.25 299.52 74.6 357.42 183.39 389.31 299.66 421.21 377.4 424.1 400.92 403.71 375.41 387.49 307.97 360.57 232.17 343.24 172.18 359.69 120.47 415.97 99.12 517.66 103.67 644.66 116.57 770.54 142.62 847.38 174.52Q847.39 174.53 847.39 174.53" opacity="0.11"></path><path d="M808.88 238.65C815.2 265.23 764.69 306.05 678.92 360.21 574.28 417.6 473.14 491.79 391.5 577.09 325.35 658.72 280.14 736.57 249.09 791.8 225.65 813.66 203.38 791.78 176.8 723.13 150.23 627.53 121.85 524.03 99.23 434.87 84.22 367.88 87.95 328.67 119.27 312.11 166.06 315.61 239.02 325.24 324.18 329.27 390.46 337.39 430.2 330.74 423.88 304.17 364.28 277.59 276.63 233.59 188.73 179.41 107.13 129.32 58.48 78.21 44.88 39.88 54.73 21.6 87.14 32.62 127.15 80.12 173.84 149.8 214.82 242.53 241.39 338.13 272.81 423.1 287.6 376.47 317.11 304.85 365.53 254.38 442.37 221.68 543.45 210.35 650.83 202.25 749.25 212.07 808.87 238.64Q808.88 238.65 808.88 238.65" opacity="0.94"></path><path d="M770.32 371.2C780.01 392.46 751.51 429.51 696.25 478.41 622.52 526.97 542.56 585.48 469.17 646.34 398.52 699.3 340.71 743.67 297.32 768.18 257.45 770.03 227.01 742.45 205.75 684.6 184.48 609.38 174.41 526.39 177.43 449.23 183.97 381.33 208.6 328.87 251.38 292.42 296.9 268.39 354.31 253.16 412.45 240.65 452.13 232.08 472.01 218.92 462.32 197.65 418.27 176.39 355.02 149.05 287.94 120.76 217.29 96.43 162.64 78.48 129.57 74.63 107.6 83.21 104.99 113.12 115.82 165.43 131.48 227.01 152.32 301.38 173.58 376.6 194.85 434.45 214.52 470.65 235.71 484.38 261.73 475.46 297.53 453.64 347.36 428.55 408.3 395.56 485.5 370.24 571.74 358.52 654.4 346.47 726.27 349.93 770.32 371.2Q770.32 371.2 770.32 371.2" opacity="0.98"></path><path d="M731.89 516.09C732.7 547.98 654.13 617.11 556.66 686 447.68 728.64 364.45 723.9 332.56 646.16 300.66 529.89 326.14 407.03 393.32 319.65 448.99 253.09 501.7 209.09 500.89 177.2 424.07 145.31 324.01 131.56 256.25 156.32 198.02 201.89 188.15 298.89 220.05 415.16 251.94 492.9 319.56 523.5 419.59 522.66 529.15 495.57 655.07 484.19 731.89 516.09Q731.89 516.09 731.89 516.09" opacity="0.59"></path><path d="M693.39 611.62C702.99 632.88 672.03 661.96 625.03 681.4 566.31 687.8 514.81 665.51 493.55 607.66 472.28 532.44 485.29 449.07 516.14 381.87 535.26 318.84 548.99 272.56 539.39 251.3 495.43 230.04 440.35 237.82 398.77 272.98 353.52 312.3 336.12 378.44 357.38 453.66 378.64 511.51 434.55 551.04 507.66 572.51 577.12 580.93 649.43 590.36 693.39 611.62Q693.39 611.62 693.39 611.62" opacity="0.60"></path></g></svg>