<?xml version="1.0" encoding="utf-8"?>
<!-- Generator: Adobe Illustrator 28.2.0, SVG Export Plug-In . SVG Version: 6.00 Build 0)  -->
<svg version="1.1" id="Layer_1" xmlns="http://www.w3.org/2000/svg" xmlns:xlink="http://www.w3.org/1999/xlink" x="0px" y="0px"
	 viewBox="0 0 510 175" style="enable-background:new 0 0 510 175;" xml:space="preserve">
<style type="text/css">
	.st0{fill:#F5F3F4;}
</style>
<g>
	<g>
		<g>
			<path class="st0" d="M176,55.3L141.4,21c-0.6-0.6-0.2-1.6,0.7-1.6h33c1.1,0,1.9-0.8,1.9-1.9v-2.8c0-1-0.9-1.9-1.9-1.9H88.3
				c-1.1,0-1.9,0.8-1.9,1.9v2.8c0,1,0.9,1.9,1.9,1.9h33c0.9,0,1.3,1,0.7,1.6L87.4,55.3c-1,1-1.3,2.5-0.6,3.8l21,41.5
				c0.5,1,1.4,1.6,2.5,1.8c0.2,0,0.4,0,0.5,0c0.9,0,1.7-0.3,2.4-1L131.7,83l18.6,18.4c0.8,0.8,1.8,1.1,2.9,0.9
				c1.1-0.2,2-0.8,2.5-1.8l21-41.5C177.2,57.8,177,56.3,176,55.3z M128.3,50.7h-19c-1.1,0-1.9,0.8-1.9,1.9v2.8c0,1,0.9,1.9,1.9,1.9
				h19V77l-15.8,15.6c-0.5,0.5-1.2,0.3-1.5-0.2L94.1,58.9c-0.2-0.4-0.1-0.8,0.2-1.1l32.4-32.1c0.6-0.6,1.6-0.2,1.6,0.7V50.7z
				 M130,13.3c0.1-0.1,0.2-0.1,0.3-0.2C130.1,13.2,130,13.2,130,13.3z M150.8,92.6L135,77V57.3h19c1.1,0,1.9-0.8,1.9-1.9v-2.8
				c0-1-0.9-1.9-1.9-1.9h-19V26.4c0-0.8,1-1.3,1.6-0.7L169,57.8c0.3,0.3,0.4,0.7,0.2,1.1l-16.9,33.5C152,92.9,151.2,93,150.8,92.6z"
				/>
		</g>
	</g>
	<g>
		<path class="st0" d="M111.3,153l-9.1,0.3l-0.4-2c-1.8,1.6-4,2.3-6.5,2.3c-3,0-5.2-0.9-6.7-2.6c-1.5-1.7-2.2-4.2-2.2-7.3
			c0-3.5,1-6.2,3.1-8.1c2.1-1.9,5.1-2.8,9.1-2.8c1,0,1.9,0.1,2.8,0.4v-4.7l-3.5-0.7v-3l9.8-0.3v24.8l3.5,0.7V153z M101.5,147.2v-9.5
			c-0.7-0.4-1.8-0.6-3.4-0.6c-3.3,0-5,2.1-5,6.3c0,3.9,1.4,5.9,4.1,5.9c0.8,0,1.6-0.2,2.3-0.5c0.7-0.4,1.2-0.7,1.5-1.1L101.5,147.2z
			"/>
		<path class="st0" d="M134.8,144.4l-14.3,0.1c0.1,1.5,0.6,2.7,1.6,3.6c0.9,0.8,2.1,1.3,3.6,1.3c1.1,0,2.2-0.1,3.4-0.4
			c1.2-0.3,2.1-0.6,2.8-0.9l1-0.4l1.9,3c-0.3,0.2-0.8,0.5-1.3,0.9c-0.6,0.3-1.7,0.8-3.5,1.4c-1.7,0.6-3.4,0.9-5.1,0.9
			c-3.7,0-6.4-0.9-8.4-2.6c-1.9-1.7-2.9-4.2-2.9-7.4c0-3.3,1-5.9,3.1-7.9c2-1.9,4.9-2.9,8.5-2.9c3.2,0,5.6,0.8,7.3,2.3
			c1.7,1.6,2.6,3.7,2.6,6.4L134.8,144.4z M124.7,137.2c-1.2,0-2.1,0.3-2.9,1s-1.2,1.6-1.4,2.8h7.8
			C128.3,138.5,127.1,137.2,124.7,137.2z"/>
		<path class="st0" d="M137.3,124.8l10-0.3v24.9l4.1,0.9v3h-14.1v-3l3.5-0.9v-20.9l-3.5-0.7V124.8z"/>
		<path class="st0" d="M153.2,133.5l9.8-0.3v16.1l3,0.9v3h-12.8v-3l3.5-0.9v-12.1l-3.5-0.7V133.5z M155.8,127.1c0-1,0.4-1.8,1.1-2.4
			c0.7-0.6,1.6-0.9,2.6-0.9c2.4,0,3.6,1.1,3.6,3.3c0,1-0.4,1.9-1.1,2.5c-0.7,0.6-1.6,0.9-2.5,0.9c-1.2,0-2.1-0.3-2.7-0.9
			C156.1,129,155.8,128.2,155.8,127.1z"/>
		<path class="st0" d="M180.2,147.7l3.8-10.8l-2.5-0.5v-3l11.3-0.2v3.2l-2.5,0.5l-7,16.4h-7.1l-6.8-16.3l-2.1-0.6v-3l11.3-0.2v3.2
			l-2.4,0.4L180.2,147.7z"/>
		<path class="st0" d="M215.7,144.4l-14.3,0.1c0.1,1.5,0.6,2.7,1.6,3.6s2.1,1.3,3.6,1.3c1.1,0,2.2-0.1,3.4-0.4
			c1.2-0.3,2.1-0.6,2.8-0.9l1-0.4l1.9,3c-0.3,0.2-0.8,0.5-1.3,0.9c-0.6,0.3-1.7,0.8-3.5,1.4c-1.7,0.6-3.4,0.9-5.1,0.9
			c-3.7,0-6.4-0.9-8.4-2.6c-1.9-1.7-2.9-4.2-2.9-7.4c0-3.3,1-5.9,3.1-7.9c2-1.9,4.9-2.9,8.5-2.9c3.2,0,5.6,0.8,7.3,2.3
			c1.7,1.6,2.6,3.7,2.6,6.4L215.7,144.4z M205.6,137.2c-1.2,0-2.1,0.3-2.9,1c-0.7,0.7-1.2,1.6-1.4,2.8h7.8
			C209.2,138.5,208,137.2,205.6,137.2z"/>
		<path class="st0" d="M218.6,133.5l8.9-0.3l0.4,2.6c0.2-0.2,0.5-0.5,1-0.8s1.1-0.8,2.2-1.3c1.1-0.5,2-0.8,2.9-0.8
			c0.7,0,1.4,0.1,2,0.2s1.1,0.2,1.4,0.4l0.4,0.1l-0.3,7.1h-3.8l-0.6-3.2c-0.8,0-1.5,0.2-2.3,0.5c-0.8,0.3-1.4,0.7-1.8,1l-0.6,0.5
			v9.9l4.1,0.9v3h-13.9v-3l3.5-0.9v-12.1l-3.5-0.7V133.5z"/>
		<path class="st0" d="M248.7,153.3L241,137l-2.3-0.6v-3l11.5-0.2v3.2l-2.4,0.4l3.8,10.4l3.7-10.3l-2.5-0.5v-3l11.6-0.2v3.2
			l-2.7,0.5l-6.4,15.2c-0.6,1.5-1.2,2.7-1.8,3.7c-0.6,1-1.3,2-2.2,3.1c-0.9,1.1-2,1.9-3.3,2.5c-1.3,0.6-2.8,0.8-4.4,0.8l-4.2-0.3
			l0.6-4h2.8c0.8,0,1.5-0.2,2.2-0.5c0.7-0.3,1.3-0.8,1.7-1.3c0.5-0.6,0.8-1.1,1.1-1.4C248.1,154.3,248.4,153.9,248.7,153.3z"/>
		<path class="st0" d="M274.4,124.8l9.6-0.3v10.3c2-1.3,4-2,6.2-2c2.9,0,5.1,0.9,6.6,2.6c1.5,1.7,2.3,4.1,2.3,7.3
			c0,3.5-1.1,6.3-3.2,8.2c-2.1,1.9-5.2,2.9-9.3,2.9c-1.4,0-2.9-0.1-4.3-0.2c-1.5-0.1-2.6-0.3-3.4-0.4l-1.2-0.2v-24.4l-3.2-0.7V124.8
			z M284,138.9v10.2c0.7,0.2,1.7,0.3,3.2,0.3c3.4,0,5.1-2.1,5.1-6.3c0-3.9-1.4-5.8-4.2-5.8c-0.8,0-1.5,0.1-2.2,0.4
			c-0.7,0.3-1.2,0.6-1.5,0.9L284,138.9z"/>
		<path class="st0" d="M302,133.5l8.9-0.3l0.4,2.6c0.2-0.2,0.5-0.5,1-0.8s1.1-0.8,2.2-1.3c1.1-0.5,2-0.8,2.9-0.8
			c0.7,0,1.4,0.1,2,0.2c0.6,0.1,1.1,0.2,1.4,0.4l0.4,0.1l-0.3,7.1h-3.8l-0.6-3.2c-0.8,0-1.5,0.2-2.3,0.5c-0.8,0.3-1.4,0.7-1.8,1
			l-0.6,0.5v9.9l4.1,0.9v3H302v-3l3.5-0.9v-12.1l-3.5-0.7V133.5z"/>
		<path class="st0" d="M346.3,153l-8.6,0.3l-0.8-2.4c-0.3,0.2-0.6,0.5-1,0.8c-0.4,0.3-1.3,0.7-2.5,1.2c-1.2,0.5-2.4,0.8-3.5,0.8
			c-2.1,0-3.7-0.5-4.9-1.5c-1.2-1-1.8-2.5-1.8-4.3c0-4.1,3.5-6.1,10.4-6.1h3v-2c0-1.9-1.1-2.8-3.3-2.8c-0.7,0-1.3,0-1.9,0.1
			s-1.1,0.2-1.4,0.3l-0.4,0.1l-0.6,2.4H325l-0.3-5.5c3.5-1,6.6-1.5,9.4-1.5c3.3,0,5.6,0.6,7,1.7c1.4,1.1,2,3,2,5.7v9.2l3.2,0.7V153z
			 M329.5,147.3c0,1.5,0.8,2.2,2.5,2.2c0.7,0,1.4-0.2,2.2-0.5c0.8-0.4,1.4-0.7,1.8-1.1l0.6-0.5v-2.5h-2.5c-1.7,0-2.9,0.2-3.6,0.6
			C329.9,145.8,329.5,146.4,329.5,147.3z"/>
		<path class="st0" d="M348.8,133.5l8.9-0.3l0.3,2.6c0.3-0.2,0.7-0.5,1.3-0.8c0.5-0.3,1.5-0.7,2.9-1.3c1.4-0.5,2.7-0.8,3.8-0.8
			c2.1,0,3.7,0.6,4.8,1.8c1.1,1.2,1.7,2.8,1.7,4.8v9.8c0.4,0.1,0.9,0.3,1.6,0.5c0.7,0.2,1.2,0.4,1.4,0.4v3h-11.7v-3l2.3-0.9v-9
			c0-0.9-0.3-1.6-0.8-2.1c-0.5-0.6-1.2-0.8-2.1-0.8c-0.8,0-1.6,0.2-2.4,0.5c-0.8,0.4-1.3,0.7-1.7,1.1l-0.6,0.5v9.8l2.2,0.9v3h-12v-3
			l3.3-0.9v-12.1l-3.3-0.7V133.5z"/>
		<path class="st0" d="M402.7,153l-9.1,0.3l-0.4-2c-1.8,1.6-4,2.3-6.5,2.3c-3,0-5.2-0.9-6.7-2.6c-1.5-1.7-2.2-4.2-2.2-7.3
			c0-3.5,1-6.2,3.1-8.1c2.1-1.9,5.1-2.8,9.1-2.8c1,0,1.9,0.1,2.8,0.4v-4.7l-3.5-0.7v-3l9.8-0.3v24.8l3.5,0.7V153z M392.9,147.2v-9.5
			c-0.7-0.4-1.8-0.6-3.4-0.6c-3.3,0-5,2.1-5,6.3c0,3.9,1.4,5.9,4.1,5.9c0.8,0,1.6-0.2,2.3-0.5c0.7-0.4,1.2-0.7,1.5-1.1L392.9,147.2z
			"/>
		<path class="st0" d="M409.2,146.8l0.3,2.6c1,0.2,2.1,0.4,3.5,0.4c2.3,0,3.4-0.7,3.4-2c0-0.6-0.4-1.1-1.2-1.5
			c-0.8-0.4-1.7-0.8-2.9-1.1c-1.1-0.3-2.2-0.6-3.4-1.1c-1.1-0.4-2.1-1-2.9-1.9c-0.8-0.8-1.2-1.9-1.2-3.1c0-2.2,0.8-3.8,2.6-4.8
			c1.7-1,3.8-1.5,6.4-1.5c1.2,0,2.4,0.1,3.7,0.3c1.3,0.2,2.4,0.4,3.2,0.5l1.1,0.3c-0.1,1.2-0.1,3.1-0.2,5.6h-3.8l-0.6-2.4
			c-0.8-0.2-1.7-0.4-2.9-0.4c-0.9,0-1.6,0.2-2.1,0.5c-0.5,0.3-0.8,0.8-0.8,1.4c0,0.6,0.4,1.1,1.2,1.4c0.8,0.4,1.7,0.7,2.9,1
			c1.1,0.3,2.2,0.6,3.4,1c1.1,0.4,2.1,1,2.9,1.8c0.8,0.8,1.2,1.8,1.2,3c0,2.1-0.9,3.7-2.7,4.9c-1.8,1.2-4.2,1.8-7.2,1.8
			c-1.2,0-2.5-0.1-3.8-0.2c-1.3-0.1-2.3-0.3-3.1-0.4l-1.1-0.2v-6.1H409.2z"/>
	</g>
	<g>
		<g>
			<path class="st0" d="M231.7,27.4L253,82.7c0.1,0.2,0.3,0.4,0.6,0.5l6,1.9c0.4,0.1,0.6,0.4,0.6,0.8l0,6.8c0,0.5-0.4,0.8-0.9,0.8
				l-30.1,0c-0.5,0-0.9-0.4-0.9-0.8l0-6.8c0-0.4,0.3-0.7,0.6-0.8l6-1.7c0.5-0.1,0.7-0.6,0.6-1.1l-1.9-5.7c-0.1-0.3-0.5-0.6-0.9-0.6
				l-21,0c-0.4,0-0.7,0.2-0.8,0.6l-2,5.6c-0.2,0.4,0.1,0.9,0.6,1.1l6.3,1.8c0.4,0.1,0.6,0.4,0.6,0.8l0,6.8c0,0.5-0.4,0.8-0.9,0.8
				l-28.5,0c-0.5,0-0.9-0.4-0.9-0.8l0-6.8c0-0.4,0.3-0.7,0.6-0.8l6.3-1.9c0.3-0.1,0.5-0.3,0.6-0.5l21.8-55.3
				c0.1-0.3,0.5-0.5,0.8-0.5l14.7,0C231.3,26.9,231.6,27.1,231.7,27.4z M221.6,46L215,64.8c-0.2,0.5,0.2,1.1,0.8,1.1l13,0
				c0.6,0,1-0.6,0.9-1.1L223.3,46C223.1,45.2,221.9,45.2,221.6,46z"/>
		</g>
		<g>
			<path class="st0" d="M255.2,27.7l0,7c0,0.3,0.2,0.6,0.5,0.8l6.1,2.5c0.1,0,0.2,0.1,0.3,0.1l4.7,0l8.6,0c0.5,0,0.9,0.4,0.9,0.8
				l0,43.4c0,0.4-0.3,0.7-0.6,0.8l-7,2c-0.4,0.1-0.6,0.4-0.6,0.8l0,6.8c0,0.5,0.4,0.8,0.9,0.8l30.3,0c0.5,0,0.9-0.4,0.9-0.8l0-6.8
				c0-0.4-0.3-0.7-0.6-0.8l-7.1-2c-0.4-0.1-0.6-0.4-0.6-0.8l0-43.4c0-0.5,0.4-0.8,0.9-0.8l8.6,0l4.8,0c0.1,0,0.2,0,0.3-0.1l6.2-2.5
				c0.3-0.1,0.5-0.4,0.5-0.8l0-7c0-0.5-0.4-0.8-0.9-0.8l-56.3,0C255.6,26.9,255.2,27.2,255.2,27.7z"/>
		</g>
		<g>
			<path class="st0" d="M344.5,92.9l-16-54.5c-0.1-0.3-0.3-0.5-0.5-0.6l-6.1-2.4c-0.3-0.1-0.6-0.4-0.6-0.8l0-6.9
				c0-0.5,0.4-0.8,0.9-0.8l28,0c0.5,0,0.9,0.4,0.9,0.8l0,6.9c0,0.3-0.2,0.6-0.6,0.8l-6.1,2.3c-0.4,0.2-0.6,0.6-0.5,1l7.7,30.4
				c0.2,0.8,1.5,0.9,1.7,0l13.1-41.8c0.1-0.4,0.5-0.6,0.9-0.6l12,0c0.4,0,0.8,0.3,0.9,0.6l12.4,41.7c0.2,0.8,1.5,0.8,1.7,0l8.6-30.4
				c0.1-0.4-0.1-0.8-0.5-1l-6.2-2.3c-0.3-0.1-0.6-0.4-0.6-0.8l0-6.9c0-0.5,0.4-0.8,0.9-0.8l26.8,0c0.5,0,0.9,0.4,0.9,0.8l0,6.9
				c0,0.3-0.2,0.6-0.5,0.8l-6.3,2.5c-0.2,0.1-0.4,0.3-0.5,0.5L400,92.8c-0.1,0.4-0.5,0.6-0.9,0.6l-12.9,0c-0.4,0-0.8-0.3-0.9-0.6
				l-12.1-41.2c-0.2-0.8-1.5-0.8-1.7,0c-1.6,5.9-4,13.6-7,23c-3.2,10-5.2,16.1-5.9,18.2c-0.1,0.4-0.5,0.6-0.9,0.6l-12.5,0
				C344.9,93.5,344.6,93.2,344.5,92.9z"/>
		</g>
	</g>
	<g>
		<g>
			<rect x="85.8" y="108.8" class="st0" width="338.5" height="7.7"/>
		</g>
	</g>
</g>
</svg>
