<?xml version="1.0" encoding="utf-8"?>
<!-- Generator: Adobe Illustrator 28.2.0, SVG Export Plug-In . SVG Version: 6.00 Build 0)  -->
<svg version="1.1" id="Layer_1" xmlns="http://www.w3.org/2000/svg" xmlns:xlink="http://www.w3.org/1999/xlink" x="0px" y="0px"
	 viewBox="0 0 510 175" style="enable-background:new 0 0 510 175;" xml:space="preserve">
<style type="text/css">
	.st0{fill:#F5F3F4;}
</style>
<path class="st0" d="M156.4,146.6c-17.8,0.1-35.6,0.2-53.3,0.4c-5.9,0.1-10.7-2.1-14.5-6.5c-1.7-1.9-2.9-4.3-4.2-6.5c-3-5-6-10-9-15
	c-3.2-5.4-6.4-10.9-9.7-16.4c-1.1-1.8-2.2-3.5-3.2-5.3c-2.3-4.3-3.1-8.8-2.2-13.6c0.8-4.1,3.2-7.3,5.2-10.8c2.6-4.5,5.3-8.9,8-13.3
	c4.1-6.9,8.4-13.8,12.4-20.8c1.8-3.1,4-5.7,7-7.7c2.3-1.5,4.8-2.5,7.6-2.7c1.7-0.1,3.3-0.3,5-0.3c15.6,0,31.2,0,46.8,0
	c4.3,0,8.1,1.6,11.5,4.1c2.8,2,4.4,4.9,6.1,7.7c2.7,4.6,5.4,9.1,8.1,13.7c2.6,4.4,5.3,8.8,7.9,13.2c2.5,4.2,5.1,8.2,7.3,12.5
	c2.5,5,2.6,10.4,0.4,15.5c-1.6,3.5-3.7,6.8-5.7,10.1c-2.4,4.2-4.9,8.3-7.4,12.5c-3.3,5.4-6.5,10.9-9.8,16.3
	c-1.4,2.2-2.7,4.6-4.3,6.6C163.8,143.6,160.4,145.5,156.4,146.6 M133.4,142.4c5.6,0,11.3,0,16.9,0c1.5,0,2.9,0,4.3-0.3
	c3.8-0.6,6.9-2.5,9-5.8c2.2-3.5,4.3-7.2,6.5-10.7c3.6-5.9,7.1-11.8,10.6-17.8c2.5-4.1,5-8.3,7.4-12.4c2.2-3.8,3.2-8,1.4-12.2
	c-1.1-2.6-2.6-5.1-4-7.6c-3.5-6-7-11.9-10.5-17.8c-3.4-5.8-7-11.5-10.4-17.3c-3-5.1-7.5-7.6-13.2-7.7c-14.4-0.1-28.8-0.1-43.2,0
	c-2.3,0-4.5,0.1-6.8,0.3c-4.2,0.4-7.7,2.3-10.1,5.9c-2.4,3.6-4.5,7.4-6.7,11.1c-2.9,4.9-5.9,9.8-8.8,14.7c-3,5-5.8,10.1-8.9,15
	c-2.9,4.7-3.4,9.5-0.8,14.4c1.5,3,3.4,5.8,5.1,8.7c3.5,5.9,7,11.9,10.5,17.8c2.7,4.6,5.5,9.1,8.2,13.7c3.1,5.4,7.5,8.2,13.8,8.2
	C113.6,142.3,123.3,142.4,133.4,142.4z"/>
<path class="st0" d="M226.4,112.6c-1.3-0.3-2.6-0.5-3.8-0.8c-2.6-0.6-3.5-2.5-3.5-4.6c-0.1-13.7,0-27.4,0-41c0-1.8,1.1-3,2.8-3.5
	c5.2-1.4,10.6-1.2,15.9-1c3.4,0.1,7,0.7,10,2.4c4.8,2.7,7.7,6.7,7.7,12.4c0,3.6-0.9,6.8-3.3,9.5c-0.3,0.3-0.5,0.8-0.7,1.3
	c1,1.3,2.1,2.5,3,3.9c1.7,2.7,2.3,5.6,1.8,8.8c-0.3,2.2-0.7,4.2-1.8,6.2c-1.8,3.2-4.8,4.7-8,5.6c-5,1.4-10.2,1.6-15.3,1.4
	C229.7,113,228.1,112.8,226.4,112.6 M238.2,91.9c-1.9-0.1-3.8-0.2-5.7-0.3c-1,0-1.5,0.3-1.4,1.4c0.1,1.2,0,2.4,0,3.6
	c0,2.3,0,4.7,0,7.1c2.6,0,5.1,0.1,7.5,0c4.1-0.2,6.3-4.1,5.4-7.6C243.3,93.2,241,92.4,238.2,91.9 M235.5,71.5c-1.5,0-2.9,0-4.4,0
	c0,2.2,0,4.2,0,6.2c0,2,0,4.1,0,6.2c2.7,0,5.3,0,7.9,0c2.3,0,2.3,0,3.1-2.2c0.1-0.2,0.1-0.3,0.1-0.5
	C243.9,75.9,241.2,71.3,235.5,71.5z"/>
<path class="st0" d="M367.1,111.8c-5,1.3-9.9,1.6-14.9,1.3c-3.1-0.2-6.1-0.7-9.2-1.3c-2.1-0.4-3.2-2.1-3.2-4.3c0-13.9,0-27.7,0-41.6
	c0-1.5,0.6-2.5,2.2-2.9c2-0.5,4.1-0.9,6.1-1.1c3.1-0.2,6.3-0.4,9.5-0.3c4.7,0.2,9.3,1,13.2,4c2.9,2.2,4.5,5.2,5.2,8.7
	c0.8,4.5-0.5,8.5-3.4,12c-0.7,0.9-0.3,1.6,0.4,2.3c1.7,1.6,3.1,3.4,3.5,5.7c1.1,5.5,0.9,10.7-3.8,14.6
	C371.2,110.2,369.1,110.8,367.1,111.8 M356.9,91.9c-0.6-0.1-1.3-0.2-1.9-0.3c-3.1,0-3.1,0-3.1,3.1c0,3,0,5.9,0,9
	c2.6,0,5.1,0.1,7.6,0c2.2-0.1,3.9-1.3,4.7-3.3c0.9-2.3,1.1-4.6-0.9-6.5C361.6,92.1,359.4,91.9,356.9,91.9 M362.8,75.1
	c-2.5-4.6-6.9-3.4-10.8-3.5c0,4.2,0,8.2,0,12.3c3,0,5.8,0,8.7,0c0.8,0,1.2-0.3,1.5-1C363.4,80.4,363.8,77.9,362.8,75.1z"/>
<path class="st0" d="M388.9,110.7c-4.5-3.1-5.8-7.7-6.8-12.6c-1.1-6-0.4-11.7,2.3-17.1c2.2-4.4,5.9-6.8,10.7-7.8
	c3.8-0.8,7.5-0.5,11,1.3c4,2,6.2,5.3,6.8,9.5c0.4,2.9,0.5,5.8,0.6,8.7c0.1,1.5-0.7,2.6-2.5,2.6c-5.5-0.1-11,0-16.5-0.1
	c-1,0-1.4,0.2-1.4,1.3c-0.1,4.7,2.6,7.9,7.5,8.2c2.4,0.1,4.6-0.2,6.8-0.7c2.6-0.5,2.9-0.5,3.6,1.9c0.7,2.2,0,5-1.7,5.8
	c-1.4,0.7-2.9,1.1-4.4,1.4c-4.8,1-9.5,0.5-14.1-1.3C390.3,111.5,389.7,111.1,388.9,110.7 M399.5,82c-5.2-0.8-6.9,3.2-6.2,7.1
	c3.3,0,6.7,0,10,0C403.5,85.8,402.2,83.3,399.5,82z"/>
<path class="st0" d="M290.4,78.8c1.3,1.8,1.9,3.8,2.1,5.9c0.3,2.8,0.2,5.6,0.3,8.4c0,1.6-0.5,2.1-2.1,2.1c-5.5,0-11,0-16.5,0
	c-1.6,0-1.9,0.2-1.7,1.8c0.5,4.3,1.9,7.1,7.3,7.7c2.5,0.3,4.8-0.2,7.2-0.7c2.2-0.5,3.1,0.1,3.5,2.3c0.1,0.4,0.2,0.8,0.3,1.3
	c0.2,3.1-0.8,4.3-4.5,5.3c-5.8,1.5-11.5,1.3-16.9-1.4c-3.4-1.7-5.4-4.6-6.5-8.1c-0.9-2.7-1.4-5.5-1.7-8.4c-0.3-4.7,0.5-9,2.5-13.3
	c2.1-4.6,5.8-7.2,10.6-8.3c4.7-1.1,9.3-0.6,13.2,2.4C288.6,76.4,289.4,77.6,290.4,78.8 M272.5,88.6c0.2,0.2,0.3,0.6,0.5,0.6
	c3.2,0,6.4,0,9.6,0c0.3-2.1-0.2-3.9-1.3-5.5c-1.7-2.5-6.1-2.2-7.6,0C272.7,85.2,272.7,86.7,272.5,88.6z"/>
<path class="st0" d="M421.8,107c-1.8-2.6-2.5-5.5-3.1-8.4c-0.4-2-0.6-4.1-0.5-6.1c0.1-2.3,0.6-4.6,1-7c0.5-3.2,2.1-5.9,4.3-8.3
	c2.3-2.4,5.2-3.8,8.4-4.4c4.5-0.8,8.8-0.2,12.7,2.6c2.8,2.1,4.4,4.9,4.9,8.1c0.5,2.9,0.5,6,0.6,9c0.1,2.2-1.5,2.8-3.2,2.4
	c-0.4-0.1-0.9-0.1-1.3-0.1c-3.8,0.1-7.6,0.2-11.5,0.2c-1,0-1.9-0.2-2.9-0.2c-1,0-1.5,0.4-1.6,1.6c-0.2,3.8,2.2,7.4,6.2,7.8
	c2.7,0.3,5.3,0.2,7.9-0.5c2.4-0.6,3.1-0.8,3.8,2.3c0.3,1.2,0.1,2.5-0.2,3.7c-0.4,1.9-2.2,2.4-3.7,2.8c-5.4,1.3-10.8,1.4-16.1-0.8
	C425.2,110.8,423.3,109.2,421.8,107 M437.7,82.9c-0.2-0.1-0.5-0.2-0.7-0.4c-1.7-1.1-3.7-1-5.3,0.2c-2.2,1.7-2.2,4-2,6.4
	c3.4,0,6.8,0,10.1,0C440,86.8,439.3,84.8,437.7,82.9z"/>
<path class="st0" d="M309.1,95.6c-0.4,5.2,2.3,8.7,7.8,8.9c2.5,0.1,5-0.3,7.4-0.9c0.6-0.2,1.6,0.1,2,0.6c1.6,2,1.2,5.9-0.9,7.3
	c-1.4,0.9-3.1,1.4-4.7,1.6c-4.1,0.6-8.2,0.5-12.2-0.8c-4.9-1.6-8.1-5-9.4-9.9c-0.7-2.5-1-5.2-1.4-7.8c-0.6-4.6,0.5-8.9,2.2-13
	c1.9-4.5,5.6-7.2,10.3-8.4c3.9-1,7.7-0.9,11.4,0.8c3.9,1.8,6.4,4.9,7.1,9.1c0.5,3.2,0.5,6.5,0.6,9.8c0.1,1.6-1.2,2.3-2.7,2.3
	c-3.4-0.1-6.9,0-10.3-0.1c-1.4,0-2.8-0.1-4.2-0.2C311.1,94.9,309.9,94.4,309.1,95.6 M315.9,82.1c-4.8-1.3-7.2,2.1-6.8,7.1
	c3.4,0,6.7,0,10.1,0C319.4,86.2,318.6,83.8,315.9,82.1z"/>
<path class="st0" d="M163.7,90.9c0.8,2.3,1.7,4.5,2.3,6.8c1.2,4.9,1.2,9.8-0.9,14.3c-2.4,5-6.6,8-11.9,9.6c-3.6,1.1-7.3,1.5-11,0.8
	c-2.5-0.4-5-0.9-7.6-1.4c-1.7,2.4-3.4,5-5.3,7.5c-0.8,1-2.5,1.3-3.6,0c-1.9-2.5-3.7-5.1-5.5-7.6c-1.8,0.4-3.6,0.8-5.5,1.2
	c-2.9,0.6-5.7,0.6-8.6,0.3c-3-0.3-5.8-1.1-8.4-2.5c-5.5-3-8.7-7.4-9.4-13.8C87.7,99.2,90,92.9,93.5,87c2.2-3.7,5-6.8,8.1-9.7
	c4.1-3.8,9.1-6.1,14.5-7.4c4.5-1.1,9-1.6,13.6-1.3c7.3,0.4,14.4,1.9,20.5,6.2c5.1,3.6,9.2,8.1,12.2,13.6
	C162.8,89.2,163.2,90,163.7,90.9 M137.8,117.3c3.3,0.5,6.6,1.5,10.1,0.9c3-0.5,5.8-1.2,8.4-2.9c2.3-1.4,4-3.3,5-5.7
	c1.4-3.5,1.3-7.2,0.4-10.9c-1.1-4.5-3-8.5-5.8-12.1c-1.8-2.4-3.7-4.8-6.1-6.4c-0.4,3.7-0.8,7.4-1.4,11c-0.7,4.9-2.2,9.6-4.4,14
	c-1.9,3.7-4.2,7.3-6.2,10.9C137.7,116.4,137.7,116.8,137.8,117.3 M95.7,92.1c-0.8,2-1.6,4-2.3,6c-0.9,2.9-1.1,5.9-0.6,8.8
	c1,5.6,4.8,8.8,10,10.5c3.3,1.1,6.8,1.3,10.2,0.8c1.5-0.2,3-0.7,4.8-1.1c-7.9-11.2-12.5-23.3-12.4-37.1
	C101.2,83.4,98.1,87.4,95.7,92.1 M124.3,85.2c-3.5,0.7-6.6,2.3-9.2,4.7c-1.2,1-1.1,1.9-0.1,2.9c0.8,0.8,1.8,0.7,2.8-0.2
	c0.5-0.4,1-0.9,1.5-1.2c3-2.2,6.4-3,10-2.6c3.3,0.3,6,1.9,8.5,4c0.8,0.7,2,0.6,2.6,0c0.6-0.7,0.6-1.9-0.1-2.6
	c-2.1-2.1-4.6-3.5-7.4-4.4C130.1,84.9,127.3,84.6,124.3,85.2 M137,103.3c-0.2-0.5-0.3-1-0.6-1.4c-2.8-2.6-6.1-4-10.1-3.6
	c-3,0.3-5.4,1.5-7.5,3.4c-1.1,1-1.1,1.8-0.1,2.8c0.7,0.8,1.8,0.7,2.8-0.1c0.5-0.4,0.9-0.9,1.4-1.1c3.9-2.1,7.6-1.5,11,1.2
	C135.2,105.6,136.3,105.2,137,103.3z"/>
<path class="st0" d="M126.1,47.3c3.5-0.4,6.6,0.5,9.5,1.8c1.5-1,2.9-2.2,4.5-3c1.4-0.8,2.6-0.5,3.5,0.9c0.7,1.1,0.3,2.3-1,3.2
	c-0.8,0.5-1.7,1.1-2.5,1.6c1.3,1.6,2.6,3.2,3.7,4.8c2,3,3.1,6.3,3.5,9.9c0.2,1.7-0.6,2.9-1.9,2.9c-1.3,0-2.2-1.2-2.4-2.6
	c-0.6-4.9-2.7-9-6.7-12.2c-2.7-2.1-5.7-3.3-9.1-3.2c-5.1,0.2-9,2.5-12,6.7c-2,2.8-3.3,6-3.5,9.5c-0.1,0.9-1.4,2-2.3,1.8
	c-1.1-0.2-2.1-1.4-1.9-2.5c0.5-3.1,1.1-6.1,2.7-8.8c1.3-2.1,2.9-4.1,4.5-6.2c-0.6-0.4-1.4-1-2.3-1.5c-1-0.6-1.6-2.2-1.1-3.3
	c0.4-1,2.1-1.6,3.2-1c1.4,0.7,2.6,1.7,3.9,2.5c0.4,0.3,1.1,0.3,1.6,0.2C122,48.3,124,47.8,126.1,47.3z"/>
</svg>
