<?xml version="1.0" encoding="utf-8"?>
<!-- Generator: Adobe Illustrator 28.2.0, SVG Export Plug-In . SVG Version: 6.00 Build 0)  -->
<svg version="1.1" id="Layer_1" xmlns="http://www.w3.org/2000/svg" xmlns:xlink="http://www.w3.org/1999/xlink" x="0px" y="0px"
	 viewBox="0 0 510 175" style="enable-background:new 0 0 510 175;" xml:space="preserve">
<style type="text/css">
	.st0{fill:#F5F3F4;}
</style>
<g>
	<path class="st0" d="M337.1,102.8c0-4,0.1-7.6-0.1-11.2c-0.1-2.4-0.4-4.9-3.2-6.1c-2.9-1.2-5.2,0-7.2,1.9c-2.4,2.1-3.8,4.7-3.7,8.1
		c0.2,5.5,0.1,11,0,16.5c-0.1,3.3,0.6,5.9,4.6,6.3c0.2,0,0.4,0.5,0.9,1.2c-8.1,0-15.8,0-24.1,0c0.7-0.7,1.1-1.3,1.5-1.3
		c3.2-0.4,4.2-2.3,4.1-5.3c-0.1-7.1,0-14.1,0-21.2c0-2.5-0.3-4.9-2.9-6.1c-2.7-1.2-5-0.2-7,1.5c-2.8,2.4-4.6,5.4-4.7,9.1
		c-0.1,5.8,0,11.7,0,17.5c0,2.5,1.1,3.9,3.6,4.3c0.6,0.1,1.1,0.4,1.6,1.4c-8.2,0-16.5,0-24.7,0c-0.1-0.2-0.2-0.4-0.2-0.6
		c0.7-0.3,1.4-0.7,2.2-0.9c3.1-0.6,4.6-2.4,4.6-5.5c0-8.5,0-17,0-25.5c0-3-1.2-5.1-4.4-5.6c-0.8-0.1-1.5-0.5-2.2-1.5
		c6.5,0,12.9,0,19.8,0c0,2.6,0,5.3,0,8.3c11.4-12.8,22.5-13,27.5-0.5c0.7-0.9,1.2-1.6,1.8-2.4c2.9-3.7,6.5-6.2,11.3-6.7
		c8.2-0.8,13.5,3.6,13.7,11.8c0.2,6.4,0.1,12.8,0.1,19.2c0,6.5,0,6.5,6.1,8.6c0.2,0.1,0.4,0.5,0.9,1.2c-8.5,0-16.6,0-25.3,0
		c0.8-0.6,1.2-1.3,1.7-1.4c2.5-0.4,3.6-2,3.6-4.4C337.1,110.2,337.1,106.6,337.1,102.8z"/>
	<path class="st0" d="M30.3,117.2c1.3-2.3,3.3-4.4,3.4-6.6C34,99.4,34,88.1,33.7,76.9c-0.1-5.2-1.8-6.7-6.9-7.7
		c-0.7-0.1-1.4-0.4-2.1-1.3c0.7-0.2,1.5-0.6,2.2-0.6c12.9,0.1,25.8-0.1,38.7,0.4c3.5,0.1,7.2,1.4,10.2,3.1c6.7,3.9,6.9,12.7,0.4,17
		c-3,1.9-6.6,2.9-10.2,4.5c1.7,0.4,3.4,0.5,5,1.1c2.8,1,5.8,1.7,8.2,3.3c6.6,4.3,6.4,14-0.2,18.8c-4.3,3.1-9.2,4.2-14.4,4.3
		c-12.5,0.1-24.9,0.1-37.4,0c-0.8,0-1.7-0.3-2.5-0.4c0-0.3,0-0.6,0-0.9C26.6,118.2,28.3,117.8,30.3,117.2 M57.3,118.3
		c7.7-1,11.2-4.1,11.6-10.6c0.4-6.8-2.8-11.7-9.4-13.2c-3.7-0.8-7.5-0.8-11.5-1.2c0,8.6,0,16.6,0,25C51,118.3,53.9,118.3,57.3,118.3
		 M53.4,69c-1.7,0-3.5,0-5.2,0c0,7.9,0,15.4,0,23.3c3.2-0.3,6.2-0.3,9.1-0.8c4.3-0.8,7.3-3.4,8.5-7.8C68.1,75.2,63.6,69.6,53.4,69z"
		/>
	<path class="st0" d="M437.8,82.4c1,2.9,2.5,5.5,2.6,8.2c0.4,6.4,0.1,12.8,0.1,19.2c0,6.3,0.2,6.5,6.2,8.5c0.2,0.1,0.4,0.5,0.9,1.2
		c-8.6,0-16.9,0-25.1,0c0-0.4,0-0.8,0.1-0.8c4.9-0.8,5.2-4.3,5-8.3c-0.2-6.2-0.1-12.3-0.1-18.5c0-2.6-0.3-5.2-3.1-6.3
		c-2.9-1.2-5.2,0.2-7.2,2c-3.1,2.7-4.4,6.3-4.4,10.3c0,4.9,0,9.7,0,14.6c0,3,0.6,5.5,4.3,5.8c0.3,0,0.6,0.6,1.2,1.3
		c-8.7,0-17,0-25.6,0c0.5-0.7,0.6-1.1,0.8-1.2c6-1.7,6.4-2.2,6.4-8.4c0-6.8,0-13.7,0-20.5c0-6.1-0.3-6.6-6-8.4
		c-0.4-0.1-0.7-0.4-0.9-1.3c1.7-0.1,3.4-0.2,5-0.2c4,0,7.9,0.1,11.9,0c2.2-0.1,3,0.7,2.9,2.9c-0.1,1.7,0,3.5,0.4,5.5
		c3-4,6.3-7.6,11.2-8.7C429.3,78,433.9,78.5,437.8,82.4z"/>
	<path class="st0" d="M140.1,119.9c-1.2,0-2.1-0.1-2.9-0.2c-0.2,0-0.3-0.3-0.9-0.9c1-0.3,1.8-0.7,2.5-0.8c3.1-0.5,4.6-2.4,4.7-5.5
		c0-8.6,0-17.2,0-25.8c0-3.1-1.5-4.9-4.7-5.4c-0.8-0.1-1.5-0.5-2.1-1.5c6.5,0,12.9,0,19.7,0c0,2.7,0,5.5,0,9.3
		c1.1-1.6,1.7-2.5,2.3-3.3c3.6-5,8.3-7.8,14.7-7.1c7,0.7,10.7,4.7,10.8,11.7c0.1,6.6,0,13.2,0,19.8c0,5.7,0.4,6.1,5.8,7.8
		c0.4,0.1,0.6,0.7,1.2,1.4c-8.7,0-17,0-25.3,0c0.1-0.5,0.1-0.7,0.1-0.7c5.4-1,5.3-4.9,5.1-9.2c-0.2-6.2,0.1-12.4-0.2-18.5
		c-0.1-1.8-1.1-4.6-2.5-5.2c-1.8-0.7-4.6-0.4-6.4,0.6c-3.6,2.1-5.5,5.7-5.6,9.9c-0.2,5.6-0.1,11.2-0.1,16.9c0,2.5,1,4.2,3.7,4.7
		c0.6,0.1,1.1,0.4,1.6,0.7c0,0.4-0.1,0.8-0.1,1.2C154.6,119.9,147.5,119.9,140.1,119.9z"/>
	<path class="st0" d="M249.9,88.5c-0.2-1.2-0.2-2-0.5-2.9c-1.1-4-3.2-5.7-6.4-5.4c-3,0.3-5.7,3.1-5.6,6.8c0.1,2.8,1.1,5.5,1.8,9
		c-3.5-0.6-7.2-0.9-10.6-2.1c-4.8-1.7-5.6-6.5-2-10c1.5-1.4,3.3-2.6,5.2-3.3c6.8-2.3,13.9-2.6,20.8-0.9c6.6,1.7,9.8,5.9,9.9,12.7
		c0.1,5.5,0,11,0,16.5c0,2.5,0.1,5.8,3.2,6.1c3.4,0.3,3.4-3.1,4.1-5.4c0.3-1.2,0.4-2.6,0.5-3.9c1.7,1.2,1.8,3.9,0.4,7.9
		c-1.7,5-5.5,7.4-11,7.1c-5.9-0.4-8.6-3.2-10.4-11.6c-0.8,1.4-1.3,2.4-1.8,3.3c-3.3,5.6-7.9,8.9-14.6,8.3c-4-0.3-7.3-2-8.6-6.2
		c-1.3-4.2-0.1-8.1,3.5-10.2c5.5-3.3,11.5-6,17.4-8.5C250.3,93.7,250.4,94,249.9,88.5 M250.2,97.9c-0.5-0.6-1.3-1.7-1.5-1.6
		c-4.5,2.1-8.9,4.4-10.9,9.3c-0.9,2.3-0.7,4.6,1.4,6.2c2.1,1.5,4.2,0.6,5.7-0.9c1.6-1.6,3.1-3.5,4-5.5
		C249.7,103.3,249.7,100.8,250.2,97.9z"/>
	<path class="st0" d="M94.8,114.1c-9.7-12.9-4.2-30.9,10.3-34.7c14.2-3.7,25.8,5.4,24.5,19.8c-4.2,0-8.5,0-12.8,0
		c-4.3,0-8.6,0-12.8,0c-0.3,6.2,3.6,12,8.8,13.6c6.7,2,11.2-0.6,16.9-9.9c1.5,3.6-2.3,11.2-7.2,14.5
		C114.6,122.9,102.5,121.5,94.8,114.1 M105,85c-0.7,4-1.3,8.1-2.1,12.5c4.1,0,7.3,0,10.5,0c2.3,0,3.6-1.4,3.4-3.6
		c-0.3-3-0.7-6.1-1.5-9c-0.7-2.4-2.3-4.5-5.1-4.5C107.5,80.3,106.2,82.3,105,85z"/>
	<path class="st0" d="M198.4,82c-1.5-0.5-2.9-0.9-4.2-1.3c0-0.2,0-0.5,0.1-0.7c6.4,0,12.9,0,19.7,0c0,2.3,0,4.8,0,7.3
		c-0.2,9.8,0.1,19.7-0.7,29.4c-0.8,10.4-8,17-17.6,17.3c-0.8,0-1.6-0.2-3.1-0.3c6.9-4.5,8.3-10.8,8.3-17.6c0-9.4,0.1-18.8-0.1-28.1
		C200.8,85.9,199.4,84,198.4,82z"/>
	<path class="st0" d="M365.4,81.8c-1.4-0.5-2.7-0.8-3.9-1.1c0-0.3,0.1-0.5,0.1-0.8c6.4,0,12.9,0,19.8,0c0,2.2,0,4.6,0,7
		c0,7.7,0,15.4,0,23.1c0,6.1,0.2,6.3,6.1,8.1c0.4,0.1,0.8,0.3,1.2,0.4c-0.2,0.3-0.4,0.6-0.5,0.9c-8.8,0-17.6,0-26.4,0
		c-0.1-0.3-0.1-0.5-0.2-0.8c0.7-0.3,1.3-0.6,2-0.8c3.1-0.5,4.8-2.3,4.8-5.3c0.1-8.7,0.2-17.4-0.1-26.1
		C368.1,85,366.5,83.5,365.4,81.8z"/>
	<path class="st0" d="M455.2,58.8c8-3.1,11-9.9,13.6-17.7c-0.8,0.5-1.7,1-1.7,1.1c2.6,6,4.5,12.5,11.1,15.5c2.1,1,4.2,1.8,7,2.9
		c-10.7,2.2-15.8,9.1-17.8,18.7c0.3,0,0.8,0,0.8,0c-1.9-11-8.6-17.4-18.3-19C451.1,60,453.1,59.4,455.2,58.8z"/>
	<path class="st0" d="M370.9,73.2c-4-2.4-5.1-5.9-3.4-9.3c1.8-3.3,6.4-4.6,10.1-2.9c3.3,1.6,4.7,5.2,3.3,8.6
		C379.6,73.1,376.2,74.3,370.9,73.2z"/>
	<path class="st0" d="M207.4,60.3c5,0.9,7.3,3.4,7,7.4c-0.3,3.4-2.9,5.8-6.7,6c-4.5,0.2-7.7-2.2-8-6
		C199.3,63.6,202.1,60.8,207.4,60.3z"/>
</g>
</svg>
