<?xml version="1.0" encoding="utf-8"?>
<!-- Generator: Adobe Illustrator 28.2.0, SVG Export Plug-In . SVG Version: 6.00 Build 0)  -->
<svg version="1.1" id="Layer_1" xmlns="http://www.w3.org/2000/svg" xmlns:xlink="http://www.w3.org/1999/xlink" x="0px" y="0px"
	 viewBox="0 0 510 175" style="enable-background:new 0 0 510 175;" xml:space="preserve">
<g>
	<path d="M103.4,26.5c0.2,0,0.3,0.1,0.4,0.1c0.6,0,1.1,0,1.7,0c1.5,0,2.9,0,4.4,0.1c1.7,0.1,3.4,0.2,5,0.3c1.9,0.2,3.7,0.3,5.6,0.6
		c2.1,0.3,4.1,0.6,6.2,1c2.4,0.5,4.7,0.9,7.1,1.5c2.6,0.6,5.1,1.5,7.5,2.6c2,0.9,3.9,1.9,5.7,3.1c2.9,2,5.3,4.5,6.8,7.7
		c0.7,1.5,1.3,3.1,1.4,4.7c0.1,1.7,0.3,3.3,0.2,5c-0.1,3.2-0.7,6.3-2,9.2c-0.9,2.1-2,4.1-3.5,5.8c-1.4,1.8-3.1,3.3-5,4.5
		c-2.4,1.6-5,2.7-7.8,3.2c-1.2,0.2-2.4,0.4-3.4,0.5c1.1,0.2,2.5,0.4,3.8,0.7c1.4,0.4,2.8,0.8,4.2,1.3c1.8,0.7,3.5,1.6,5.1,2.8
		c1.6,1.2,3,2.5,4.3,4c1.8,2,3.2,4.3,4.3,6.7c1.1,2.5,2,5,2.6,7.7c0.3,1.5,0.6,3,0.9,4.5c0.1,0.7,0.2,1.5,0.2,2.2
		c0.1,1.1,0.2,2.1,0.1,3.2c-0.1,1.8-0.3,3.5-0.7,5.2c-0.4,2.1-1,4.1-1.8,6c-0.9,2.1-2,4.1-3.3,6c-1.4,1.9-3.1,3.6-4.9,5.2
		c-1.9,1.5-3.9,2.8-6.1,3.8c-2.7,1.3-5.5,2.2-8.4,2.8c-1.8,0.4-3.6,0.6-5.3,0.9c-1.3,0.2-2.7,0.3-4.1,0.3c-1.8,0.1-3.7,0.1-5.5,0.1
		c-1,0-2.1-0.2-3-0.4c-1.2-0.3-2.3-1.8-2.4-3c0-0.6,0-1.3,0-1.9c0-0.7,0-1.3,0-1.9c1.4-0.3,2.8-0.5,4.1-0.9c1.3-0.4,2.6-0.8,3.8-1.3
		c1.9-0.8,3.6-1.8,5.2-3.1c1.3-1.1,2.4-2.3,3.6-3.5c1.8-1.9,3-4.2,4.1-6.5c0.9-2,1.7-4.2,2-6.4c0.3-1.5,0.4-3.1,0.5-4.6
		c0.3-3.9-0.4-7.6-1.7-11.2c-1-2.6-2.3-4.9-4.1-7c-2.2-2.6-4.9-4.7-8-6.1c-2.2-1-4.6-1.8-7-2.2c-1.8-0.3-3.5-0.4-5.3-0.6
		c-0.9-0.1-1.8-0.1-2.7-0.2c0,0.2-0.1,0.3-0.1,0.4c0,4.3-0.1,8.5-0.1,12.8c0,3.4,0,6.7,0,10.1c0,9.2-0.1,18.3-0.1,27.5
		c0,1.8-0.1,3.6-0.1,5.5c0.1,1.7,0.3,3.3,1.1,4.9c1.1,2.3,3,3.6,5.4,4.2c1,0.2,2,0.3,3,0.3c1.5,0.1,3,0.1,4.4,0.1
		c1.9,0,3.9,0.1,5.8,0.1c1.5,0,3-0.2,4.4-0.4c2-0.3,4-0.6,5.9-1c2.8-0.6,5.4-1.5,8-2.6c2.8-1.3,5.4-2.8,7.8-4.8
		c3-2.4,5.4-5.3,7.3-8.6c1.6-2.7,2.7-5.6,3.5-8.6c0.1-0.2,0.4-0.5,0.6-0.5c0.7-0.1,1.4,0,2.1,0c0.5,0,0.9,0.4,0.7,0.9
		c-0.6,1.7-1.1,3.5-1.9,5.2c-1,2.5-2.4,4.9-4,7.1c-0.8,1.1-1.6,2.1-2.5,3.1c-0.6,0.7-1.3,1.4-2,2.1c-1.4,1.2-2.9,2.5-4.4,3.6
		c-2,1.5-4.2,2.6-6.4,3.6c-2.6,1.2-5.3,2.1-8.1,2.7c-2,0.4-4,0.8-6,1.1c-1.7,0.2-3.4,0.3-5.1,0.5c-15.3,0-30.6,0-45.8,0
		c0-0.6,0-1.2,0-1.8c0.2-0.1,0.4-0.1,0.5-0.2c2.2-0.3,4.3-1,6.2-2.3c1.9-1.3,2.8-3.2,2.9-5.5c0.1-22.3,0.1-44.5,0.1-66.8
		c0-11.7,0-23.5,0-35.2c0-0.4,0-0.9-0.1-1.3c-0.4-1.8-1.3-3.4-2.9-4.5c-2-1.5-4.2-2.3-6.7-2.5c0-0.7,0-1.3,0-2
		C89.1,26.5,96.2,26.5,103.4,26.5 M107.9,49.3c0,8.6,0,17.2,0,25.8c1.1,0.1,2,0.3,3,0.4c2.3,0,4.7,0.1,7-0.4
		c2.8-0.6,5.4-1.6,7.7-3.1c1.8-1.2,3.4-2.6,4.7-4.3c1.5-1.8,2.6-3.8,3.5-6c0.9-2.3,1.5-4.7,1.7-7.2c0.1-1.4,0-2.8-0.1-4.2
		c-0.1-1.7-0.5-3.2-1-4.8c-0.8-2.4-1.9-4.6-3.5-6.6c-1.6-2.1-3.6-3.8-5.8-5.1c-3.3-1.9-7-2.8-10.8-3c-2.1-0.1-4.2,0.1-6.5,0.1
		C107.9,37.1,107.9,43.1,107.9,49.3z"/>
	<path d="M278.3,148.5c-0.1-0.1-0.2-0.2-0.3-0.2c-1.5-0.2-3-0.6-4.4-1.2c-1.6-0.7-2.8-1.9-3.8-3.3c-1.6-2.2-2.5-4.7-2.8-7.4
		c-0.2-1.3-0.3-2.5-0.3-3.8c-0.1-1.3-0.1-2.6,0-3.9c0.1-1.5,0.3-3,0.5-4.5c0.3-2.3,0.7-4.7,1.1-7c0.3-1.8,0.8-3.7,1.2-5.5
		c0.5-2.5,1.1-5,1.6-7.5c0.5-2.1,1-4.3,1.4-6.4c0.3-1.6,0.5-3.2,0.7-4.8c0.1-1.4,0.1-2.8,0.1-4.3c0.1-1.3-0.2-2.5-0.6-3.7
		c-0.6-1.5-1.6-2.4-3-3c-1.4-0.6-2.9-0.9-4.4-1c-0.8-0.1-1.6-0.2-2.4-0.3c0-0.6,0-1.3,0-2c0.2,0,0.4,0,0.6,0c3,0,6.1,0,9.1,0
		c3.6,0,7.2-0.1,10.9-0.1c2.7,0,4.9,1,6.4,3.4c1,1.6,1.8,3.1,1.8,5c0,1.4,0.2,2.9,0.1,4.3c-0.1,1.6-0.3,3.2-0.5,4.7
		c-0.3,2.1-0.6,4.1-1,6.2c-0.4,2.2-0.9,4.5-1.4,6.7c-0.6,2.7-1.2,5.4-1.8,8.2c-0.5,2.1-0.9,4.2-1.4,6.3c-0.2,1-0.3,1.9-0.4,2.9
		c-0.1,1.4-0.2,2.7-0.1,4.1c0.1,2.3,0.6,4.5,1.9,6.4c1,1.3,2.2,2.2,3.9,2.4c2.2,0.4,4.2-0.2,6.1-1c1.9-0.8,3.5-1.9,4.9-3.4
		c1-1.1,1.8-2.3,2.3-3.6c0.7-1.8,1.5-3.5,2-5.3c1-3.4,2-6.9,2.8-10.3c0.8-3.5,1.5-7,2.2-10.4c0.4-2.1,0.9-4.3,1.3-6.4
		c0.4-1.9,0.7-3.9,1-5.8c0.3-1.8,0.7-3.6,1-5.4c0.3-1.8,0.6-3.7,0.9-5.6c0.2-1.1,0.4-2.2,0.5-3.2c6,0,12,0,18.1,0
		c-0.1,0.6-0.1,1.3-0.3,1.9c-0.5,2.3-0.9,4.6-1.4,6.8c-0.5,2.3-1,4.5-1.4,6.8c-0.6,2.7-1.1,5.3-1.7,8c-0.4,1.9-0.8,3.7-1.2,5.6
		c-0.5,2.3-1,4.6-1.5,6.9c-0.3,1.5-0.7,3.1-1,4.6c-0.3,1.7-0.7,3.4-0.9,5.2c-0.2,1.5-0.3,3-0.3,4.5c0,2.3,0.3,4.5,1.4,6.5
		c0.8,1.6,2,2.9,3.9,3.4c1.5,0.4,3,0.2,4.5-0.3c1.5-0.5,2.8-1.4,3.9-2.4c1.1-1,2.1-1.9,3-3.1c1.3-1.6,2.6-3.3,3.7-5
		c1.2-1.8,2.2-3.7,3.2-5.5c1-1.9,2-3.9,2.9-5.9c1.5-3.4,2.9-6.9,4-10.5c0.5-1.5,0.9-3.1,0.9-4.7c0-0.5-0.3-0.9-0.6-1.3
		c-0.7-1-1.7-1.5-2.9-1.5c-1,0-1.8-0.5-2.5-1.1c-1.9-1.6-3-3.7-3.4-6.1c-0.4-2.5,0.1-4.8,1.7-6.8c0.8-1.1,1.8-2.1,3.1-2.7
		c2.3-1.2,4.6-1.4,7,0c1.7,1,2.6,2.6,3.2,4.3c0.4,1.4,0.7,2.8,0.7,4.2c0,0.9,0.1,1.8,0,2.7c-0.1,1.3-0.2,2.7-0.4,4
		c-0.4,2.3-0.9,4.6-1.4,6.9c-0.5,1.9-1,3.7-1.6,5.6c-1.1,3.3-2.3,6.5-3.5,9.7c-1,2.4-2.1,4.7-3.2,7c-1.6,3.1-3.4,6-5.4,8.8
		c-0.7,1-1.6,1.9-2.4,2.8c-0.6,0.6-1.2,1.3-1.8,1.9c-1.8,1.8-3.8,3.2-6,4.4c-2.2,1.2-4.5,2.3-7,3c-1.6,0.4-3.3,0.7-4.9,1.1
		c-0.5,0.1-0.9,0.1-1.4,0.2c-1,0-1.9,0-2.9,0c-6.8-0.5-11.9-4.6-13.4-11.8c-0.1,0.1-0.2,0.3-0.3,0.4c-1.9,1.8-3.8,3.6-5.8,5.3
		c-1.8,1.6-4,2.7-6.2,3.6c-2.9,1.2-5.9,2-9.1,2.3c-0.5,0-1,0.1-1.4,0.2C281.8,148.5,280.1,148.5,278.3,148.5z"/>
	<path d="M248.6,148.5c-0.2,0-0.4-0.1-0.6-0.1c-1.9,0-3.9-0.2-5.7-0.9c-2.2-0.8-3.6-2.2-3.9-4.5c-0.2-1.5-0.3-2.9-0.5-4.3
		c-0.2,0.3-0.4,0.8-0.6,1.3c-1.8,3.4-4.4,5.7-7.9,7.1c-1.5,0.6-3.1,1-4.7,1.1c-1.3,0.1-2.7,0.2-4.1,0.1c-2.6-0.2-5.1-0.8-7.5-1.9
		c-1.8-0.9-3.4-2.1-4.7-3.6c-2.1-2.3-3.5-5-4.3-8c-0.5-1.6-0.8-3.3-1.1-5c-0.4-2.2-0.5-4.5-0.4-6.8c0-14.6,0-29.2,0-43.8
		c0-0.2,0-0.4,0-0.7c5.5,0,10.9,0,16.4,0c0,0.2,0,0.4,0,0.7c0,17.9,0,35.8,0,53.6c0,2.7,0.3,5.5,1.6,7.9c0.8,1.5,1.9,2.7,3.7,3.1
		c1.2,0.3,2.3,0.1,3.4-0.3c1.5-0.6,2.9-1.5,4.1-2.6c1.8-1.7,3.2-3.7,4.3-5.9c0.9-1.8,1.5-3.7,1.7-5.7c0.1-1.2,0.2-2.3,0.2-3.5
		c0-15.5,0-31.1,0-46.6c0-0.2,0-0.4,0-0.7c5.6,0,11.1,0,16.8,0c0,0.2,0,0.3,0,0.5c0,11.7,0,23.3,0,35c0,8-0.1,16-0.1,24.1
		c0,2.8,1.1,4.9,3.4,6.4c1.7,1.1,3.5,1.8,5.5,2.1c0.2,0,0.4,0.1,0.7,0.2c0,0.6,0,1.2,0,1.8c-0.2,0-0.4,0-0.6,0c-3.7,0-7.4,0-11,0
		c-0.2,0-0.4,0-0.6,0.1C250.9,148.5,249.8,148.5,248.6,148.5z"/>
	<path d="M428,128.7c-0.8,1.3-1.6,2.6-2.5,3.8c-1.6,2-3.3,3.9-5.2,5.6c-1.7,1.5-3.5,2.9-5.4,4.1c-2.1,1.4-4.4,2.5-6.7,3.4
		c-2.5,1-5.1,1.7-7.8,2.2c-1.4,0.2-2.8,0.4-4.2,0.4c-1.6,0.1-3.1,0.1-4.7,0.1c-2,0-4-0.2-6-0.5c-2.2-0.3-4.3-0.9-6.3-1.6
		c-1.9-0.7-3.8-1.6-5.5-2.7c-1.6-1-3.1-2.2-4.4-3.6c-2.2-2.3-4-4.9-5.2-7.9c-1-2.3-1.7-4.7-2-7.2c-0.1-1-0.2-2.1-0.3-3.1
		c-0.1-1.1-0.2-2.2-0.1-3.2c0.1-1.5,0.2-3,0.4-4.5c0.3-3,1.2-5.9,2.2-8.7c0.9-2.4,1.9-4.7,3.2-6.9c1-1.5,1.9-3.1,3-4.6
		c0.7-1,1.4-1.9,2.2-2.7c0.8-0.9,1.6-1.7,2.5-2.5c1.4-1.2,2.8-2.4,4.2-3.5c1.9-1.5,4.1-2.6,6.3-3.6c2.4-1.1,4.9-2,7.6-2.4
		c1.6-0.3,3.3-0.5,4.9-0.8c0,0,0.1,0,0.1,0c0.7,0,1.3,0,1.9,0c-0.8,0.6-1.7,1.2-2.6,1.8c-1.5,1.1-2.8,2.4-4,3.8
		c-1.4,1.6-2.7,3.2-3.8,5c-1.5,2.4-2.9,4.9-3.9,7.5c-0.7,1.7-1.5,3.4-2,5.1c-0.7,2.3-1.4,4.6-2,7c-0.5,2-0.8,4-1.2,6.1
		c0,0.1-0.1,0.2-0.2,0.5c0.6-0.1,1.1-0.1,1.6-0.3c2.7-0.7,5.5-1.3,8.2-2.1c2.3-0.7,4.5-1.4,6.7-2.3c4.1-1.6,8-3.6,11.5-6.3
		c1.4-1.1,2.7-2.2,3.9-3.5c2.4-2.5,4.1-5.3,5.1-8.6c0.3-1.2,0.6-2.5,0.7-3.7c0.1-1.3,0.1-2.7,0.1-4c0-0.4-0.1-0.7-0.1-1.2
		c0.6,0.4,1.1,0.7,1.6,1.1c0.7,0.6,1.5,1.2,2.2,1.9c1.7,1.8,3,3.9,3.5,6.3c0.4,2.2,0.3,4.4-0.3,6.6c-0.6,2.3-1.8,4.4-3.3,6.3
		c-2.1,2.7-4.8,4.7-7.7,6.5c-2.4,1.5-4.8,2.7-7.4,3.7c-2.5,1-5,2-7.6,2.8c-3.2,1-6.4,1.7-9.7,2.5c-2.2,0.5-4.4,0.9-6.6,1.3
		c-0.9,0.2-1.8,0.2-2.6,0.3c-0.3,0-0.4,0.1-0.5,0.4c-0.2,1.3-0.5,2.6-0.6,4c-0.1,1.1-0.3,2.3-0.2,3.4c0.1,2.5,0.5,4.9,1.6,7.1
		c1.1,2.2,2.8,3.9,5,5.2c2.1,1.2,4.3,1.9,6.6,2.2c0.9,0.1,1.9,0.3,2.8,0.3c1.5,0,2.9-0.2,4.4-0.3c2.7-0.2,5.4-0.9,8-1.8
		c2.7-1,5.3-2.3,7.6-4.1c1.5-1.2,3-2.4,4.3-3.7c2-2,3.7-4.3,5.1-6.8c0.2-0.3,0.4-0.7,0.6-1c0.2-0.4,0.6-0.6,1-0.4
		c0.7,0.2,1.5,0.5,2.2,0.8c0.1,0,0.2,0.2,0.3,0.3C428,128.2,428,128.5,428,128.7z"/>
	<path d="M169.9,59.2c-2.1-1.5-4.4-2.2-6.9-2.4c0-0.6,0-1.3,0-1.9c8.8,0,17.6,0,26.4,0c0,0.2,0,0.4,0,0.6c0,5.8,0,11.7,0,17.5
		c0,7.4-0.1,14.8-0.1,22.2c0,7.3-0.1,14.6-0.1,21.9c0,7.2-0.1,14.4-0.1,21.6c0,2.1,0.9,3.9,2.6,5.2c1.7,1.3,3.6,2.1,5.7,2.4
		c0.4,0.1,0.8,0.2,1.3,0.2c0,0.6,0,1.2,0,1.8c-0.2,0-0.4,0-0.5,0c-5.4,0-10.9,0-16.3,0c-2,0-4-0.5-5.7-1.6c-1.4-1-2.3-2.3-2.7-4
		c-0.5-1.8-0.6-3.7-0.6-5.6c0-24.3,0-48.5,0-72.8c0-2.1-0.9-3.8-2.5-5C170,59.3,170,59.3,169.9,59.2z"/>
</g>
</svg>
