<?xml version="1.0" encoding="utf-8"?>
<!-- Generator: Adobe Illustrator 28.2.0, SVG Export Plug-In . SVG Version: 6.00 Build 0)  -->
<svg version="1.1" id="Layer_1" xmlns="http://www.w3.org/2000/svg" xmlns:xlink="http://www.w3.org/1999/xlink" x="0px" y="0px"
	 viewBox="0 0 510 175" style="enable-background:new 0 0 510 175;" xml:space="preserve">
<style type="text/css">
	.st0{fill-rule:evenodd;clip-rule:evenodd;fill:#F5F3F4;}
</style>
<g>
	<g>
		<path class="st0" d="M81,74.3c-7.2,7.2-7.2,19.1,0,26.3c7.2,7.2,19.1,7.2,26.3,0c7.2-7.2,7.2-19.1,0-26.3
			C100,67.1,88.2,67.1,81,74.3"/>
		<path class="st0" d="M94.1,50.2v18.6h37.2v18.6c0,20.6-16.7,37.3-37.2,37.3c-20.6,0-37.2-16.7-37.2-37.3
			C56.9,66.9,73.6,50.2,94.1,50.2V31.6c-30.9,0-55.8,25.1-55.8,55.9s25.1,55.8,55.8,55.8c30.9,0,55.9-25,55.9-55.8V50.2H94.1z"/>
	</g>
	<g>
		<path class="st0" d="M451.3,90.3l4.1-14.4l4.1,14.4H451.3z M471.5,104.8c-0.2-0.9-1.1-3.6-11.8-34.1c-0.1-0.1-0.1-0.3-0.2-0.4l0,0
			c-0.3-0.7-1-1.2-1.9-1.2h-4.5c-0.8,0-1.4,0.6-1.8,1.2l0,0c-0.1,0.1-0.1,0.3-0.2,0.4c-10.7,30.5-11.6,33.2-11.8,34.1
			c0,0.1-0.1,0.2-0.1,0.4c0,0.4,0.4,0.8,0.9,0.8h5.9c0.3,0,0.7-0.2,0.8-0.6l3-9.5h11.4l3,9.5c0.1,0.3,0.4,0.4,0.8,0.6h5.9
			c0.4,0,0.9-0.3,0.9-0.8C471.6,105.1,471.5,104.9,471.5,104.8"/>
		<path class="st0" d="M341.2,90.3l4.1-14.4l4.1,14.4H341.2z M355.5,87.7c-1.6-4.3-3.5-9.9-5.9-17.1c-0.1-0.2-0.1-0.3-0.2-0.4
			c0,0,0,0,0-0.1c-0.3-0.7-1-1.2-1.8-1.2h-4.5c-0.8,0-1.4,0.6-1.9,1.2c0,0,0,0,0,0.1c-0.1,0.1-0.1,0.3-0.2,0.4
			c-10.7,30.5-11.6,33.2-11.8,34.1c0,0.1-0.1,0.3-0.1,0.4c0,0.4,0.4,0.8,0.9,0.8h5.9c0.3,0,0.7-0.2,0.8-0.6l3-9.5H351l3,9.5
			c0.1,0.3,0.4,0.6,0.8,0.6h5.8c0.4,0,0.9-0.3,0.9-0.8c0-0.1,0-0.2-0.1-0.4C361.3,104,360.6,102.4,355.5,87.7"/>
		<path class="st0" d="M362.5,101.7c0-0.7,0-0.6,0.8-1.7L380,74.9h-12.8c-0.7,0-1.1-0.4-1.1-1.1v-3.7c0-0.7,0.4-1.1,1.1-1.1h21.3
			c0.7,0,1.1,0.6,1.1,1.1v3.5c0,1-0.2,1.3-0.7,2L372.7,100h15.7c0.7,0,1.1,0.4,1.1,1.1v3.7c0,0.7-0.6,1.1-1.1,1.1h-24.7
			c-0.7,0-1.1-0.6-1.1-1.1v-3.1H362.5z"/>
		<path class="st0" d="M183.7,84.1h-3.1v-9.5h3.7c3.8,0,4.8,1.9,4.9,4.6C189.3,82.2,187.3,84.1,183.7,84.1 M201.2,105.4
			c0-0.1,0-0.2-0.1-0.2l0,0c-0.1-0.3-0.1-0.3-0.3-0.4l-11.1-17.2c2-0.1,8.4-2.2,8-9.7c-0.3-6-4.1-8.8-11.5-8.8h-12.5
			c-0.7,0-1.1,0.4-1.1,1.1v34.9c0,0.7,0.4,1.1,1.1,1.1h5.8c0.7,0,1.1-0.4,1.1-1.1V89.5h1.3l9.7,15.9c0,0.1,0.1,0.1,0.1,0.2l0,0l0,0
			c0,0,0.1,0,0.1,0.1c0.2,0.2,0.4,0.3,0.8,0.3h8l0,0C200.9,105.9,201.2,105.7,201.2,105.4L201.2,105.4z"/>
		<path class="st0" d="M203.1,70.1c0-0.7,0.4-1.1,1.1-1.1h19.9c0.6,0,1.1,0.4,1.1,1.1v3.8c0,0.6-0.6,1.1-1.1,1.1H211v8.5h10
			c0.7,0,1.1,0.4,1.1,1.1v3.8c0,0.7-0.4,1.1-1.1,1.1h-10v10.7h13.2c0.7,0,1.1,0.4,1.1,1.1v3.8c0,0.7-0.4,1.1-1.1,1.1h-19.9
			c-0.7,0-1.1-0.4-1.1-1.1L203.1,70.1L203.1,70.1z"/>
		<path class="st0" d="M418.1,68.9c-0.7,0-1.1,0.4-1.1,1.1v3.7c0,0.7,0.6,1.1,1.1,1.1h8.4v30c0,0.7,0.6,1.1,1.1,1.1h5.7
			c0.7,0,1.1-0.4,1.1-1.1v-30h10.1c0.7,0,1.1-0.6,1.1-1.1V70c0-0.7-0.4-1.1-1.1-1.1C444.5,68.9,418.1,68.9,418.1,68.9z"/>
		<path class="st0" d="M239.2,100.3h-3.8V74.6h4.5c6.6,0,10.1,4.5,10.6,11.8C250.8,95.5,246,100.3,239.2,100.3 M258.8,85.7
			c-0.6-10.5-6.9-16.7-18.7-16.7h-11.6c-0.7,0-1.1,0.4-1.1,1.1v34.8c0,0.7,0.4,1.1,1.1,1.1h13.2C250.5,105.9,259.6,99.1,258.8,85.7"
			/>
		<path class="st0" d="M319.2,88.6v11.7h-4.5c-6.6,0-10.1-4.3-10.6-11.8c-0.4-9.1,4.3-13.8,11.1-13.8h2.7h1.2h6.9
			c0.6,0,1.1-0.4,1.1-1.1v-3.5c0-0.7-0.6-1.1-1.1-1.1h-13.3c-8.8,0-17.9,6.8-17.2,20.4c0.6,10.5,6.9,16.7,18.7,16.7H326
			c0.6,0,1.1-0.4,1.1-1.1V88.6c0-0.7-0.6-1.1-1.1-1.1h-5.7C319.8,87.3,319.2,87.9,319.2,88.6"/>
		<path class="st0" d="M261.5,70.1c0-0.7,0.4-1.1,1.1-1.1h19.9c0.7,0,1.1,0.4,1.1,1.1v3.8c0,0.6-0.4,1.1-1.1,1.1h-13v8.5h10
			c0.7,0,1.1,0.4,1.1,1.1v3.8c0,0.7-0.6,1.1-1.1,1.1h-10v10.7h13.2c0.7,0,1.1,0.4,1.1,1.1v3.8c0,0.7-0.4,1.1-1.1,1.1h-19.9
			c-0.7,0-1.1-0.4-1.1-1.1v-35H261.5z"/>
		<path class="st0" d="M392.1,70.1c0-0.7,0.4-1.1,1.1-1.1h19.9c0.7,0,1.1,0.4,1.1,1.1v3.8c0,0.6-0.6,1.1-1.1,1.1h-13v8.5h10
			c0.7,0,1.1,0.4,1.1,1.1v3.8c0,0.7-0.6,1.1-1.1,1.1h-10v10.7h13c0.7,0,1.1,0.4,1.1,1.1v3.8c0,0.7-0.6,1.1-1.1,1.1h-19.9
			c-0.7,0-1.1-0.4-1.1-1.1V70.1z"/>
	</g>
</g>
</svg>
