<?xml version="1.0" encoding="utf-8"?>
<!-- Generator: Adobe Illustrator 28.2.0, SVG Export Plug-In . SVG Version: 6.00 Build 0)  -->
<svg version="1.1" id="Layer_1" xmlns="http://www.w3.org/2000/svg" xmlns:xlink="http://www.w3.org/1999/xlink" x="0px" y="0px"
	 viewBox="0 0 510 175" style="enable-background:new 0 0 510 175;" xml:space="preserve">
<style type="text/css">
	.st0{fill:#F5F3F4;}
	.st1{fill-rule:evenodd;clip-rule:evenodd;fill:#F5F3F4;}
</style>
<path class="st0" d="M178.9,56.1c4,0,7.1,1.7,9.4,5.1c2.3,3.4,3.4,8.2,3.4,14.4c0,13.2-3,23.6-8.9,31.4c-6,7.7-13.4,11.6-22.3,11.6
	c-8.2,0-14-3.5-17.2-10.6c-4.7,7.1-11.6,10.6-20.5,10.6c-5.8,0-10.8-2-14.9-5.9s-6.2-10.4-6.2-19.5V71.4c0-2.1-0.8-4-2.4-5.8
	c-1.6-1.8-2.4-3-2.4-3.7v-0.4c0-1.5,0.8-2.4,2.5-2.6l16-2.4c3.3-0.4,5,0.6,5,3.1l-0.3,40.9c-0.1,3.3,0.5,6,1.6,7.9
	c1.2,2,2.9,2.9,5.1,2.9c4.2,0,7.6-2.6,10.1-7.7c2.5-5.2,3.7-10.9,3.7-17.2v-15c0-2.1-0.8-4-2.4-5.8c-1.6-1.8-2.4-3-2.4-3.7v-0.4
	c0-1.5,0.9-2.4,2.6-2.6l14.6-2.6c3.4-0.6,5.1,0.5,5.1,3.4l-0.4,40.5c-0.2,7.5,2.1,11.2,6.9,11.2c4.3,0,8.4-2.8,12.1-8.4
	c3.7-5.6,5.6-11.7,5.6-18.2c0-2-0.4-3.8-1.2-5.4s-1.7-2.9-2.8-3.9s-2.2-2.1-3.3-3.1s-2.1-2.3-2.9-3.7c-0.8-1.5-1.2-3.1-1.2-4.8
	c0-2.3,0.7-4.2,2.2-5.6C174.4,56.8,176.4,56.1,178.9,56.1"/>
<path class="st0" d="M202.5,117.3c-1.8,0-2.7-0.7-2.7-2.1v-0.5c0-0.8,0.8-2.1,2.4-3.9c1.6-1.7,2.4-3.6,2.4-5.6V76.9
	c0-2.1-0.8-4-2.4-5.9c-1.6-1.8-2.4-3.1-2.4-3.7v-0.4c0-0.8,0.9-1.7,2.6-2.6l15.6-7.7c1.6-0.7,2.8-0.7,3.7-0.2s1.4,1.4,1.4,2.7v46.1
	c0,2,0.9,3.9,2.6,5.6c1.7,1.7,2.6,3,2.6,3.9v0.5c0,1.4-1,2.1-2.9,2.1C225.4,117.3,202.5,117.3,202.5,117.3z"/>
<path class="st0" d="M221.1,45.4c-2,2-4.6,3.1-7.9,3.1c-3.3,0-6-1-8-3.1c-2.1-2-3.1-4.7-3.1-7.9s1-5.8,3.1-7.8s4.7-3.1,8-3.1
	s5.9,1,7.9,3.1c2,2,3,4.6,3,7.8S223.1,43.3,221.1,45.4"/>
<path class="st0" d="M237.1,117.3c-1.9,0-2.9-0.7-2.9-2.1v-0.5c0-0.8,0.8-2.1,2.4-3.9c1.6-1.7,2.4-3.6,2.4-5.5V43.8
	c0-2.2-0.8-4.1-2.4-5.9c-1.6-1.7-2.4-3-2.4-3.6v-0.5c0-1,0.8-1.8,2.5-2.5l15.7-7.7c1.7-0.7,2.9-0.7,3.8-0.2c0.9,0.5,1.3,1.3,1.3,2.5
	v79.5c0,1.9,0.9,3.7,2.7,5.5c1.8,1.7,2.7,3,2.7,3.9v0.5c0,1.4-1,2.1-2.9,2.1L237.1,117.3L237.1,117.3z"/>
<path class="st0" d="M270.6,117.3c-1.9,0-2.9-0.7-2.9-2.1v-0.5c0-0.8,0.8-2.1,2.4-3.9c1.6-1.7,2.4-3.6,2.4-5.5V43.8
	c0-2.2-0.8-4.1-2.4-5.9c-1.6-1.7-2.4-3-2.4-3.6v-0.5c0-1,0.8-1.8,2.5-2.5l15.7-7.7c1.7-0.7,2.9-0.7,3.8-0.2s1.3,1.3,1.3,2.5v79.5
	c0,1.9,0.9,3.7,2.7,5.5c1.8,1.7,2.7,3,2.7,3.9v0.5c0,1.4-1,2.1-2.9,2.1L270.6,117.3L270.6,117.3z"/>
<path class="st1" d="M361,17.8c28.9,0,52.3,23.4,52.3,52.3s-23.4,52.3-52.3,52.3S308.7,99,308.7,70.1S332.1,17.8,361,17.8"/>
<path class="st0" d="M207.3,154.8h4.9c0.8,0,1.4,0,1.8-0.1c0.6-0.1,1.1-0.3,1.5-0.6s0.7-0.7,1-1.2s0.4-1.1,0.4-1.8
	c0-0.8-0.2-1.5-0.6-2c-0.4-0.6-0.9-1-1.6-1.2c-0.7-0.2-1.6-0.3-2.9-0.3h-4.5L207.3,154.8L207.3,154.8z M207.3,145.1h4.2
	c1.1,0,2-0.1,2.5-0.2c0.7-0.2,1.2-0.6,1.5-1c0.3-0.5,0.5-1.1,0.5-1.8s-0.2-1.3-0.5-1.8s-0.8-0.9-1.3-1.1c-0.6-0.2-1.6-0.3-3-0.3
	h-3.9V145.1z M204.7,157.2v-20.9h7.3c1.5,0,2.7,0.2,3.6,0.6c0.9,0.4,1.6,1.1,2.1,2s0.8,1.8,0.8,2.8c0,0.9-0.2,1.7-0.7,2.5
	s-1.1,1.4-2,1.9c1.2,0.4,2.1,1,2.7,1.9c0.6,0.9,1,1.9,1,3.2c0,1-0.2,1.9-0.6,2.7c-0.4,0.8-0.9,1.5-1.4,1.9c-0.6,0.5-1.3,0.8-2.1,1
	c-0.9,0.2-1.9,0.3-3.2,0.3h-7.5L204.7,157.2L204.7,157.2z"/>
<path class="st0" d="M230.9,148.6h7.1l-2.2-5.8c-0.7-1.8-1.2-3.2-1.5-4.4c-0.3,1.4-0.7,2.7-1.2,4L230.9,148.6z M224.9,157.2l8-20.9
	h3l8.5,20.9h-3.1l-2.4-6.3h-8.8l-2.3,6.3H224.9z"/>
<polygon class="st0" points="250.9,157.2 250.9,136.3 253.9,136.3 265.5,152.7 265.5,136.3 268.3,136.3 268.3,157.2 265.3,157.2 
	253.7,140.8 253.7,157.2 "/>
<polygon class="st0" points="276.5,157.2 276.5,136.3 279.1,136.3 279.1,146.7 288.7,136.3 292.2,136.3 284.1,144.8 292.6,157.2 
	289.2,157.2 282.3,146.7 279.1,150 279.1,157.2 "/>
</svg>
