<?xml version="1.0" encoding="utf-8"?>
<!-- Generator: Adobe Illustrator 28.2.0, SVG Export Plug-In . SVG Version: 6.00 Build 0)  -->
<svg version="1.1" id="Layer_1" xmlns="http://www.w3.org/2000/svg" xmlns:xlink="http://www.w3.org/1999/xlink" x="0px" y="0px"
	 viewBox="0 0 510 175" style="enable-background:new 0 0 510 175;" xml:space="preserve">
<style type="text/css">
	.st0{fill:#F5F3F4;}
</style>
<g>
	<path class="st0" d="M194.4,42.3c3.3,0,6.3,0,9.3,0c2.5,0,3.5,1.2,3.1,3.7c-4.3,25.4-8.5,50.9-12.8,76.3c-1.4,8.2-4.9,11-13.3,11.1
		c-2.7,0-5.3,0-8,0c-6.8,0-10.2-2.4-12.3-9c-3.2-9.9-6.2-19.8-9.3-29.7c-1.4-4.5-2.9-9-4.5-14.1c-0.7,1.2-1.2,1.8-1.4,2.5
		c-4.1,13.1-8.3,26.2-12.3,39.4c-2.5,8.1-5.7,10.8-14.1,10.8c-2.7,0-5.4,0.1-8,0c-7.1-0.3-10.6-3.1-12-10.1
		c-1.1-5.4-1.9-10.9-2.9-16.4C92.4,87,89,66.9,85.6,46.8c-0.6-3.7-0.1-4.5,3.6-4.5c4.4,0,8.8,0.1,13.3,0c2.7-0.1,4.1,0.9,4.5,3.8
		c2.7,20.1,5.6,40.1,8.5,60.2c0.4,2.7,0.8,5.4,1.9,8.3c0.6-1.7,1.2-3.5,1.8-5.2c4.1-12.8,8.2-25.6,12.2-38.5c1.3-4.1,3.8-6.3,8-6.5
		c4.6-0.2,9.3-0.2,13.9,0c4.1,0.2,6.8,2.4,8,6.4c4.3,13.9,8.8,27.8,13.2,41.7c0.2,0.6,0.5,1.2,1.4,1.9c0.6-4.1,1.3-8.1,1.8-12.2
		c2.5-18.1,5-36.3,7.4-54.4c0.7-5.3,0.7-5.4,6-5.4C192.1,42.3,193.1,42.3,194.4,42.3z"/>
	<path class="st0" d="M415.6,134.2c-11.6,0.2-22.9,1.2-34.1,0.4c-15.9-1.2-24.6-11.1-24.8-27.2c-0.2-13.1-0.2-26.1,0-39.2
		c0.3-16.3,9.1-25.8,25.4-27.5c13.1-1.4,26.1-0.6,39,1.4c2.4,0.4,3.4,1.5,3.3,3.9c-0.1,2.8-0.1,5.6,0,8.3c0.1,2.9-1.1,4.1-4.1,4
		c-8.9-0.1-17.9-0.1-26.8,0c-2.3,0-4.5,0.1-6.8,0.3c-5.1,0.5-7.6,2.4-8.4,7.4c-0.6,3.7-0.5,7.5-0.7,11.6c1.9,0,3.3,0,4.7,0
		c11.8,0,23.7,0,35.5,0c4.2,0,4.7,0.6,4.8,4.9c0,2.8,0,5.6,0,8.3c-0.1,3.2-0.9,4-4.4,4c-12.2,0-24.5,0-36.7,0c-1.1,0-2.2,0-3.9,0
		c0.3,5.2,0.2,10,0.9,14.7c0.7,4.7,3.2,6.9,8,7c10.9,0.3,21.8,0.3,32.7,0.5c0.7,0,1.4,0,2.2,0c2,0,3.1,1.1,3.1,3.1
		c0.1,3.4,0.2,6.8-0.1,10.2c-0.1,1-1.3,2.3-2.3,2.6C420.1,133.8,418,133.9,415.6,134.2z"/>
	<path class="st0" d="M266.9,113.6c-1,5.5-1.8,10.8-2.9,16c-0.3,1.3-1.1,2.8-2.1,3.5c-0.9,0.6-3.1,0.7-3.7,0
		c-0.8-0.9-1.1-2.8-0.9-4.1c2-11.7,4.1-23.5,6.2-35.2c2.5-14.2,5-28.3,7.5-42.5c1-5.9,4.1-9,8.9-8.9c3.9,0,6.1,1.8,7.5,6.1
		c2.9,9,5.7,18,8.6,27c5.3,16.3,10.5,32.7,15.8,49c0.3,0.8,0.7,1.6,1.8,2.4c0.4-1.1,0.9-2.1,1-3.2c4.5-25.5,8.9-51,13.4-76.5
		c0.4-2.6,1-4.9,4.4-4.8c2.7,0.1,3.4,1.4,3,3.8c-1.6,8.8-3.1,17.6-4.7,26.4c-3.1,17.4-6.1,34.8-9.2,52.3c-1.1,6.2-4.2,9.1-9.5,8.8
		c-3.3-0.2-5.2-2-6.2-5.1c-4.5-14-9-28-13.6-41.9c-3.7-11.5-7.4-23.1-11.2-34.6c-0.3-1.1-1-2-1.5-3c-0.4,0-0.8,0.1-1.2,0.1
		C274.5,70.4,270.7,91.9,266.9,113.6z"/>
	<path class="st0" d="M224.5,96.6c3-16.8,6-33.4,9-50c0.1-0.7,0.2-1.4,0.5-2.1c1-2.2,3-2.8,4.8-1.9c0.9,0.4,1.7,2.5,1.5,3.7
		c-4.6,26.3-9.3,52.5-14,78.8c-0.3,1.6-0.5,3.3-0.8,4.9c-0.6,2.9-2.4,4.2-5.1,3.6c-2.7-0.7-2-2.8-1.7-4.5
		C220.6,118.3,222.5,107.6,224.5,96.6z"/>
</g>
</svg>
